<svg id="add_3_" data-name="add(3)" xmlns="http://www.w3.org/2000/svg" width="27.021" height="27.021" viewBox="0 0 27.021 27.021">
  <g id="Group_2360" data-name="Group 2360">
    <g id="Group_2359" data-name="Group 2359">
      <path id="Path_4468" data-name="Path 4468" d="M13.51,0a13.51,13.51,0,1,0,13.51,13.51A13.525,13.525,0,0,0,13.51,0Zm0,24.928A11.417,11.417,0,1,1,24.928,13.51,11.431,11.431,0,0,1,13.51,24.928Z" fill="#c3c3c3"/>
    </g>
  </g>
  <g id="Group_2362" data-name="Group 2362" transform="translate(7.231 7.137)">
    <g id="Group_2361" data-name="Group 2361">
      <path id="Path_4469" data-name="Path 4469" d="M148.533,140.47h-4.186v-4.186a1.047,1.047,0,1,0-2.093,0v4.186h-4.186a1.047,1.047,0,1,0,0,2.093h4.186v4.186a1.047,1.047,0,0,0,2.093,0v-4.186h4.186a1.047,1.047,0,1,0,0-2.093Z" transform="translate(-137.022 -135.238)" fill="#c3c3c3"/>
    </g>
  </g>
</svg>
