<svg xmlns="http://www.w3.org/2000/svg" width="55.49" height="55.49" viewBox="0 0 55.49 55.49">
  <g id="discount" transform="translate(27.745 0) rotate(45)">
    <path id="Path_4473" data-name="Path 4473" d="M.084,24.883l2.971.466a.1.1,0,0,1,.082.082L3.58,28.25a.1.1,0,0,0,.082.082l2.818.442a.1.1,0,0,1,.082.082l.476,3.029a.1.1,0,0,0,.082.082l3.029.476a.1.1,0,0,1,.082.082l.474,3.019a.1.1,0,0,0,.082.082l3.019.474a.1.1,0,0,1,.082.082l.466,2.971a.1.1,0,0,0,.177.05L39.2,14.532a.1.1,0,0,0-.05-.177l-2.971-.466a.1.1,0,0,1-.082-.082l-.474-3.019a.1.1,0,0,0-.082-.082l-3.019-.474a.1.1,0,0,1-.082-.082L31.967,7.12a.1.1,0,0,0-.082-.082l-3.029-.476a.1.1,0,0,1-.082-.082l-.442-2.818a.1.1,0,0,0-.082-.082l-2.818-.442a.1.1,0,0,1-.082-.082L24.883.084a.1.1,0,0,0-.177-.05L.034,24.706A.1.1,0,0,0,.084,24.883Z" transform="translate(0 0)" fill="#ffb125"/>
    <path id="Path_4474" data-name="Path 4474" d="M199.649,10.231a.1.1,0,0,1-.082-.082l-.475-3.029a.1.1,0,0,0-.082-.082l-3.029-.476a.1.1,0,0,1-.082-.082l-.442-2.818a.1.1,0,0,0-.082-.082l-2.818-.442a.1.1,0,0,1-.082-.082L192.007.084a.1.1,0,0,0-.177-.05l-2.406,2.406a.1.1,0,0,1,.177.05l.466,2.971a.1.1,0,0,0,.082.082l2.818.442a.1.1,0,0,1,.082.082l.442,2.818a.1.1,0,0,0,.082.082l3.029.476a.1.1,0,0,1,.082.082l.476,3.029a.1.1,0,0,0,.082.082l3.019.474a.1.1,0,0,1,.082.082l.451,2.7a.757.757,0,0,1-.212.661l-19.59,19.59a.1.1,0,0,1,.017.041l.466,2.971a.1.1,0,0,0,.177.05l22.267-22.266,2.406-2.406a.1.1,0,0,0-.05-.177l-2.971-.466a.1.1,0,0,1-.023-.008l-.017-.01a.1.1,0,0,1-.042-.065l-.474-3.019a.1.1,0,0,0-.082-.082Z" transform="translate(-167.124 0)" fill="#f9a628"/>
    <path id="Path_4475" data-name="Path 4475" d="M.034,263.424a.1.1,0,0,0,.05.177l2.971.466a.1.1,0,0,1,.082.082l.442,2.818a.1.1,0,0,0,.082.082l2.818.442a.1.1,0,0,1,.082.082l.476,3.029a.1.1,0,0,0,.082.082l3.029.476a.1.1,0,0,1,.082.082l.474,3.019a.1.1,0,0,0,.082.082l3.019.474a.1.1,0,0,1,.082.082l.466,2.971a.1.1,0,0,0,.177.05l4.893-4.893-14.5-14.5Z" transform="translate(0 -238.718)" fill="#122f53"/>
    <path id="Path_4476" data-name="Path 4476" d="M180.995,427.117h0a.1.1,0,0,1,.01.017.089.089,0,0,1,.008.023l.466,2.971a.1.1,0,0,0,.07.08.107.107,0,0,0,.082-.01.119.119,0,0,0,.025-.019l4.893-4.893-1.862-1.862Z" transform="translate(-167.124 -390.975)" fill="#09213e"/>
    <g id="Group_2375" data-name="Group 2375" transform="translate(9.132 8.619)">
      <path id="Path_4477" data-name="Path 4477" d="M211.92,122.6l-1.731-1.731c-1.053-1.053-.76-2.117.14-3.018a1.927,1.927,0,0,1,3.018-.14l1.731,1.731a1.927,1.927,0,0,1-.14,3.018C214.037,123.365,212.973,123.657,211.92,122.6Zm.585-4.047a.9.9,0,0,0-1.427.047.889.889,0,0,0-.035,1.415l1.731,1.731a.889.889,0,0,0,1.415-.035.9.9,0,0,0,.047-1.427Zm3.018-5.919a.686.686,0,0,1,.152.222l4.269,12.855a.626.626,0,0,1-.175.62.64.64,0,0,1-.889.023.468.468,0,0,1-.129-.222l-4.3-12.89a.518.518,0,0,1,.14-.561A.675.675,0,0,1,215.523,112.639Zm5.544,8.773-1.731-1.731c-1.053-1.053-.76-2.117.14-3.018a1.927,1.927,0,0,1,3.018-.14l1.731,1.731a1.927,1.927,0,0,1-.14,3.018C223.184,122.172,222.12,122.464,221.067,121.412Zm.585-4.047a.9.9,0,0,0-1.427.047.889.889,0,0,0-.035,1.415l1.731,1.731a.889.889,0,0,0,1.415-.035.9.9,0,0,0,.047-1.427Z" transform="translate(-202.593 -112.471)" fill="#fff"/>
      <path id="Path_4478" data-name="Path 4478" d="M124.263,218.144a.563.563,0,0,0-.8,0l-4.139,4.139a.563.563,0,1,0,.8.8l4.139-4.139A.563.563,0,0,0,124.263,218.144Z" transform="translate(-119.163 -209.893)" fill="#fff"/>
      <path id="Path_4479" data-name="Path 4479" d="M161.993,255.872a.563.563,0,0,0-.8,0l-4.139,4.139a.563.563,0,1,0,.8.8l4.139-4.139A.563.563,0,0,0,161.993,255.872Z" transform="translate(-154.002 -244.73)" fill="#fff"/>
      <path id="Path_4480" data-name="Path 4480" d="M237.452,331.332a.563.563,0,0,0-.8,0l-4.139,4.139a.563.563,0,1,0,.8.8l4.139-4.139A.563.563,0,0,0,237.452,331.332Z" transform="translate(-223.678 -314.407)" fill="#fff"/>
      <path id="Path_4481" data-name="Path 4481" d="M199.722,293.6a.563.563,0,0,0-.8,0l-4.139,4.139a.563.563,0,1,0,.8.8l4.139-4.139A.563.563,0,0,0,199.722,293.6Z" transform="translate(-188.839 -279.568)" fill="#fff"/>
    </g>
  </g>
</svg>
