<svg xmlns="http://www.w3.org/2000/svg" width="197.599" height="288.097" viewBox="0 0 197.599 288.097">
  <g id="Group_2293" data-name="Group 2293" transform="translate(-342.597 -378.861)">
    <g id="Group_661" data-name="Group 661" transform="translate(342.789 378.861)">
      <path id="Path_2310" data-name="Path 2310" d="M393.425,332.3a17.63,17.63,0,1,0-17.629-17.63A17.65,17.65,0,0,0,393.425,332.3Z" transform="translate(-294.721 -289.592)" fill="none"/>
      <path id="Path_2311" data-name="Path 2311" d="M430.618,391.96a3.38,3.38,0,0,0-4.925,1.085l.816-.258A25.276,25.276,0,0,1,430.618,391.96Z" transform="translate(-307.351 -313.456)" fill="none"/>
      <path id="Path_2312" data-name="Path 2312" d="M290.288,442.464c11.3,18.687,35.236,34.536,73,48.321-23.725-32.775-36.583-60.043-39.532-84.056a63.375,63.375,0,0,0-11.408,6.155C294.634,424.825,290.989,438.532,290.288,442.464Z" transform="translate(-273.078 -317.356)" fill="none"/>
      <path id="Path_2313" data-name="Path 2313" d="M299.991,387.949a14.61,14.61,0,1,0-8.153,2.5A14.631,14.631,0,0,0,299.991,387.949Z" transform="translate(-269.768 -305.837)" fill="none"/>
      <path id="Path_2314" data-name="Path 2314" d="M371.515,390.59l-.1-.175c-.735-1.183-2.392-2.957-3.6-2.981-.9-.013-1.827,1.158-2.3,1.86a7.976,7.976,0,0,0-.8,1.533,28.271,28.271,0,0,1,5.454.977l1.1.348.709.906q.733.935,1.437,1.9a9.935,9.935,0,0,0-1.734-4.192Z" transform="translate(-291.916 -312.473)" fill="none"/>
      <path id="Path_2315" data-name="Path 2315" d="M483.774,442.462c-.695-3.9-4.328-17.625-22.057-29.578a63.4,63.4,0,0,0-11.408-6.155c-2.95,24.013-15.808,51.282-39.533,84.057C448.54,477,472.477,461.152,483.774,442.462Z" transform="translate(-303.575 -317.356)" fill="none"/>
      <path id="Path_2316" data-name="Path 2316" d="M505.245,363.713A14.616,14.616,0,1,0,509.194,384,14.536,14.536,0,0,0,505.245,363.713Z" transform="translate(-321.721 -305.837)" fill="none"/>
      <path id="Path_2317" data-name="Path 2317" d="M506.885,355.018a22.061,22.061,0,1,0,5.959,30.622A21.955,21.955,0,0,0,506.885,355.018Zm-.214,26.46a14.616,14.616,0,1,1-3.949-20.288A14.612,14.612,0,0,1,506.672,381.478Z" transform="translate(-319.198 -303.313)" fill="#fff"/>
      <path id="Path_2318" data-name="Path 2318" d="M463.188,404.085a69.587,69.587,0,0,0-14.948-7.731c-.086,2.546-.3,5.13-.621,7.749a63.4,63.4,0,0,1,11.408,6.155c17.729,11.953,21.363,25.676,22.057,29.578-11.3,18.689-35.234,34.537-73,48.324q-2.674,3.694-5.525,7.479l-2.413,3.2h0l3.569-1.227c44.855-15.425,71.692-32.948,84.458-55.144l.574-1-.09-1.147C488.595,439.5,486.823,420.02,463.188,404.085Z" transform="translate(-300.885 -314.73)" fill="#fff"/>
      <path id="Path_2319" data-name="Path 2319" d="M289.316,395.37a22.061,22.061,0,1,0-18.308-9.73,21.952,21.952,0,0,0,18.308,9.73Zm-12.135-13.891a14.61,14.61,0,1,1,12.134,6.446A14.632,14.632,0,0,1,277.181,381.478Z" transform="translate(-267.246 -303.313)" fill="#fff"/>
      <path id="Path_2320" data-name="Path 2320" d="M366.213,495.639q-2.859-3.789-5.525-7.479c-37.761-13.785-61.7-29.634-73-48.321.7-3.932,4.346-17.639,22.057-29.58a63.4,63.4,0,0,1,11.408-6.155c-.322-2.619-.535-5.2-.622-7.749a69.607,69.607,0,0,0-14.947,7.731c-23.635,15.935-25.408,35.416-25.472,36.238l-.09,1.147.574,1c12.767,22.2,39.6,39.719,84.459,55.144l3.569,1.227h0Z" transform="translate(-270.48 -314.73)" fill="#fff"/>
      <g id="Group_658" data-name="Group 658" transform="translate(50.004 0)">
        <path id="Path_2321" data-name="Path 2321" d="M390.9,337.218a25.075,25.075,0,1,0-25.074-25.075A25.1,25.1,0,0,0,390.9,337.218Zm0-42.7a17.63,17.63,0,1,1-17.629,17.63A17.651,17.651,0,0,1,390.9,294.513Z" transform="translate(-342.202 -287.069)" fill="#f9a628"/>
        <path id="Path_2322" data-name="Path 2322" d="M431.4,378.088l-.082-1.148-.716-.9c-.589-.742-14.8-18.176-47.7-18.176s-47.114,17.434-47.7,18.176l-.716.9-.082,1.148a80.982,80.982,0,0,0-.151,8.524c.087,2.545.3,5.129.622,7.749,2.949,24.013,15.807,51.281,39.532,84.056q2.674,3.695,5.526,7.479l2.414,3.2.23.3.327.435.328-.435.231-.306,2.413-3.2q2.859-3.789,5.526-7.479c23.725-32.775,36.583-60.044,39.533-84.057.321-2.62.535-5.2.621-7.749A80.908,80.908,0,0,0,431.4,378.088Zm-28.862,6.489a3.391,3.391,0,1,1-.465,1.69A3.405,3.405,0,0,1,402.534,384.577Zm21.132,7.385c-2.379,21.741-13.814,47.12-34.633,76.914q-2.4,3.434-4.966,6.946c-.392.536-.775,1.068-1.172,1.606q-3.2-4.338-6.137-8.552c-20.82-29.795-32.254-55.174-34.633-76.915q-.42-3.843-.466-7.538c-.019-1.539.006-3.061.085-4.562,1.9-2,7.5-7.151,17.607-10.754a23.126,23.126,0,0,0-3.318,7.036,10.949,10.949,0,0,0-2.56,2.747,13.485,13.485,0,0,0-1.908,4.277,17.794,17.794,0,0,0-.14,7.454,28.769,28.769,0,0,0,3.311,8.981l4.458-2.7a24.984,24.984,0,0,1-2.394-6.094,12.527,12.527,0,0,1,.187-7.468,7.954,7.954,0,0,1,.8-1.533c.474-.7,1.4-1.873,2.3-1.86,1.209.024,2.867,1.8,3.6,2.981l.1.175.16.178a9.937,9.937,0,0,1,1.734,4.192,19.531,19.531,0,0,1-.219,8.052l5.095,1.1c.081-.375.137-.73.2-1.093,1.64-9.215-1.851-14.37-2.722-15.479a15.316,15.316,0,0,0-1.8-2.258,11.919,11.919,0,0,0-2.329-1.9c1.562-3.7,6.449-10.8,20.837-9.932,6.663.4,11.463,2.272,14.266,5.559a11.949,11.949,0,0,1,2.772,6.962,8.661,8.661,0,0,0-4.925,7.78,8.627,8.627,0,1,0,16.663-3.114,8.661,8.661,0,0,0-4.3-4.647,19.947,19.947,0,0,0-2.816-9.411c10.143,3.608,15.749,8.774,17.638,10.765.079,1.5.1,3.024.086,4.563Q424.087,388.117,423.666,391.962Z" transform="translate(-334.195 -304.988)" fill="#f9a628"/>
      </g>
    </g>
    <g id="Group_656" data-name="Group 656" transform="translate(342.597 603.089)">
      <path id="Path_2291" data-name="Path 2291" d="M589.908,359h6.877l7.622,12.262L612.029,359h6.877v29h-6.338V369.065l-8.161,12.386h-.166l-8.078-12.261V388h-6.255Z" transform="translate(-587.608 -358.502)" fill="#fff"/>
      <path id="Path_2292" data-name="Path 2292" d="M673.562,359h21.873v5.675H679.9v5.883h13.67v5.674H679.9v6.089h15.742V388h-22.08Z" transform="translate(-635.307 -358.502)" fill="#fff"/>
      <path id="Path_2293" data-name="Path 2293" d="M738.134,359h11.309c9.113,0,15.41,6.255,15.41,14.415v.083c0,8.161-6.3,14.5-15.41,14.5H738.134Zm11.309,23.24c5.219,0,8.74-3.522,8.74-8.659V373.5a8.328,8.328,0,0,0-8.74-8.74h-4.93v17.482Z" transform="translate(-672.126 -358.502)" fill="#fff"/>
      <path id="Path_2294" data-name="Path 2294" d="M814.173,359h6.38v29h-6.38Z" transform="translate(-715.483 -358.502)" fill="#fff"/>
      <path id="Path_2295" data-name="Path 2295" d="M842.893,372.92v-.083a14.738,14.738,0,0,1,15.12-15c5.468,0,8.741,1.823,11.433,4.473L865.387,367c-2.237-2.03-4.516-3.272-7.415-3.272-4.888,0-8.409,4.059-8.409,9.03v.083c0,4.972,3.438,9.114,8.409,9.114,3.314,0,5.344-1.325,7.623-3.4l4.059,4.1a14.819,14.819,0,0,1-11.889,5.178A14.637,14.637,0,0,1,842.893,372.92Z" transform="translate(-731.859 -357.842)" fill="#fff"/>
      <path id="Path_2296" data-name="Path 2296" d="M923.65,358.517h5.883l12.427,29.2h-6.669l-2.651-6.5H920.378l-2.652,6.5h-6.5Zm6.711,17.068-3.852-9.4-3.852,9.4Z" transform="translate(-770.82 -358.227)" fill="#fff"/>
      <path id="Path_2297" data-name="Path 2297" d="M993.141,359h6.38v23.2h14.457V388H993.141Z" transform="translate(-817.529 -358.502)" fill="#fff"/>
      <path id="Path_2298" data-name="Path 2298" d="M584.556,471.33l2.981-3.571a10.521,10.521,0,0,0,6.846,2.784c2.064,0,3.309-.819,3.309-2.162v-.065c0-1.278-.786-1.933-4.619-2.916-4.618-1.179-7.6-2.457-7.6-7.01v-.066c0-4.16,3.342-6.912,8.026-6.912a13.277,13.277,0,0,1,8.517,2.916l-2.62,3.8a10.766,10.766,0,0,0-5.963-2.26c-1.932,0-2.948.885-2.948,2v.067c0,1.507.983,2,4.947,3.014,4.651,1.211,7.272,2.882,7.272,6.879v.065c0,4.553-3.472,7.108-8.419,7.108A14.592,14.592,0,0,1,584.556,471.33Z" transform="translate(-584.556 -411.195)" fill="#f9a628"/>
      <path id="Path_2299" data-name="Path 2299" d="M634.644,463.185v-.065a12.192,12.192,0,0,1,24.372-.067v.067a12.192,12.192,0,0,1-24.372.065Zm19.1,0v-.065a6.967,6.967,0,0,0-6.945-7.207,6.858,6.858,0,0,0-6.879,7.14v.067a6.967,6.967,0,0,0,6.945,7.207A6.858,6.858,0,0,0,653.743,463.185Z" transform="translate(-613.116 -411.109)" fill="#f9a628"/>
      <path id="Path_2300" data-name="Path 2300" d="M701.808,452.176h5.045V470.52h11.433v4.586H701.808Z" transform="translate(-651.413 -411.631)" fill="#f9a628"/>
      <path id="Path_2301" data-name="Path 2301" d="M746.638,465.279v-13.1h5.045v12.972c0,3.735,1.867,5.667,4.946,5.667s4.947-1.867,4.947-5.5V452.176h5.045v12.94c0,6.944-3.9,10.351-10.057,10.351S746.638,472.027,746.638,465.279Z" transform="translate(-676.975 -411.631)" fill="#f9a628"/>
      <path id="Path_2302" data-name="Path 2302" d="M808.277,456.828H801.3v-4.652h19v4.652h-6.978v18.279h-5.045Z" transform="translate(-708.143 -411.631)" fill="#f9a628"/>
      <path id="Path_2303" data-name="Path 2303" d="M855.047,452.176h5.045v22.931h-5.045Z" transform="translate(-738.789 -411.631)" fill="#f9a628"/>
      <path id="Path_2304" data-name="Path 2304" d="M877.765,463.185v-.065a12.192,12.192,0,0,1,24.373-.067v.067a12.192,12.192,0,0,1-24.373.065Zm19.1,0v-.065a6.967,6.967,0,0,0-6.945-7.207,6.858,6.858,0,0,0-6.879,7.14v.067a6.967,6.967,0,0,0,6.945,7.207A6.858,6.858,0,0,0,896.863,463.185Z" transform="translate(-751.743 -411.109)" fill="#f9a628"/>
      <path id="Path_2305" data-name="Path 2305" d="M944.93,452.176h4.652L960.326,466.3V452.176h4.979v22.931h-4.291l-11.105-14.577v14.577H944.93Z" transform="translate(-790.04 -411.631)" fill="#f9a628"/>
      <path id="Path_2306" data-name="Path 2306" d="M1001.5,471.33l2.981-3.571a10.52,10.52,0,0,0,6.846,2.784c2.064,0,3.309-.819,3.309-2.162v-.065c0-1.278-.787-1.933-4.62-2.916-4.618-1.179-7.6-2.457-7.6-7.01v-.066c0-4.16,3.342-6.912,8.026-6.912a13.276,13.276,0,0,1,8.517,2.916l-2.621,3.8a10.762,10.762,0,0,0-5.962-2.26c-1.932,0-2.948.885-2.948,2v.067c0,1.507.983,2,4.947,3.014,4.651,1.211,7.272,2.882,7.272,6.879v.065c0,4.553-3.473,7.108-8.419,7.108A14.592,14.592,0,0,1,1001.5,471.33Z" transform="translate(-822.295 -411.195)" fill="#f9a628"/>
    </g>
    <g id="Group_657" data-name="Group 657" transform="translate(346.201 582.147)">
      <path id="Path_2307" data-name="Path 2307" d="M596.656,311.594h-3.715v-2.477h10.115v2.477h-3.715v9.731h-2.686Z" transform="translate(-592.941 -309.117)" fill="#fff"/>
      <path id="Path_2308" data-name="Path 2308" d="M621.266,309.117h2.686v4.831h4.953v-4.831h2.685v12.208h-2.685v-4.9h-4.953v4.9h-2.686Z" transform="translate(-609.092 -309.117)" fill="#fff"/>
      <path id="Path_2309" data-name="Path 2309" d="M652.108,309.117h9.208v2.39h-6.539v2.476h5.755v2.389h-5.755v2.564H661.4v2.389h-9.3Z" transform="translate(-626.678 -309.117)" fill="#fff"/>
    </g>
  </g>
</svg>
