<svg xmlns="http://www.w3.org/2000/svg" width="263.718" height="251.012" viewBox="0 0 263.718 251.012">
  <g id="Group_662" data-name="Group 662" transform="translate(60.494 -28.481) rotate(19)" opacity="0.172">
    <path id="Path_2311" data-name="Path 2311" d="M431.544,392.081a4.016,4.016,0,0,0-5.851,1.289l.969-.307A30.045,30.045,0,0,1,431.544,392.081Z" transform="translate(-285.088 -298.809)" fill="#021429"/>
    <path id="Path_2314" data-name="Path 2314" d="M372.8,391.183l-.116-.208c-.873-1.405-2.842-3.513-4.279-3.541-1.065-.016-2.171,1.376-2.734,2.21a9.469,9.469,0,0,0-.954,1.821,33.577,33.577,0,0,1,6.481,1.161l1.3.414.842,1.076q.87,1.11,1.707,2.26a11.8,11.8,0,0,0-2.06-4.981Z" transform="translate(-278.222 -298.371)" fill="#021429"/>
    <path id="Path_2317" data-name="Path 2317" d="M513.354,355.727a26.211,26.211,0,1,0,7.08,36.382A26.085,26.085,0,0,0,513.354,355.727Zm-.254,31.438a17.366,17.366,0,1,1-4.692-24.1A17.361,17.361,0,0,1,513.1,387.165Z" transform="translate(-290.359 -294.296)" fill="#021429"/>
    <path id="Path_2318" data-name="Path 2318" d="M475.047,405.539a82.677,82.677,0,0,0-17.76-9.185c-.1,3.024-.356,6.094-.738,9.207a75.329,75.329,0,0,1,13.554,7.313c21.064,14.2,25.381,30.507,26.206,35.142-13.422,22.205-41.862,41.034-86.73,57.414q-3.177,4.389-6.565,8.886l-2.867,3.8v0l4.241-1.458c53.293-18.326,85.179-39.145,100.346-65.517l.682-1.186-.107-1.363C505.234,447.618,503.129,424.472,475.047,405.539Z" transform="translate(-282.212 -299.375)" fill="#021429"/>
    <path id="Path_2319" data-name="Path 2319" d="M293.468,403.67a26.211,26.211,0,1,0-21.752-11.56,26.082,26.082,0,0,0,21.752,11.56Zm-14.418-16.5a17.358,17.358,0,1,1,14.417,7.659A17.385,17.385,0,0,1,279.05,387.165Z" transform="translate(-267.246 -294.296)" fill="#021429"/>
    <path id="Path_2320" data-name="Path 2320" d="M382.426,514.316q-3.4-4.5-6.565-8.886c-44.865-16.379-73.306-35.209-86.73-57.412.833-4.671,5.164-20.958,26.207-35.144a75.329,75.329,0,0,1,13.554-7.313c-.382-3.112-.635-6.182-.739-9.207a82.7,82.7,0,0,0-17.759,9.185c-28.082,18.932-30.187,42.078-30.264,43.055l-.106,1.363.682,1.186c15.168,26.372,47.054,47.191,100.347,65.517l4.24,1.458h0Z" transform="translate(-268.685 -299.375)" fill="#021429"/>
    <g id="Group_658" data-name="Group 658" transform="translate(59.41 0)">
      <path id="Path_2321" data-name="Path 2321" d="M395.619,346.652a29.792,29.792,0,1,0-29.791-29.792A29.826,29.826,0,0,0,395.619,346.652Zm0-50.738a20.946,20.946,0,1,1-20.945,20.947A20.971,20.971,0,0,1,395.619,295.914Z" transform="translate(-337.757 -287.069)" fill="#021429"/>
      <path id="Path_2322" data-name="Path 2322" d="M449.681,381.893l-.1-1.364-.85-1.071c-.7-.882-17.586-21.595-56.677-21.595s-55.977,20.713-56.676,21.595l-.85,1.071-.1,1.364a96.2,96.2,0,0,0-.179,10.127c.1,3.024.357,6.094.739,9.207,3.5,28.53,18.781,60.928,46.969,99.869q3.177,4.39,6.565,8.886l2.868,3.8.273.361.389.516.39-.516.274-.363,2.867-3.8q3.4-4.5,6.565-8.885c28.188-38.94,43.465-71.339,46.97-99.87.382-3.112.635-6.183.738-9.207A96.124,96.124,0,0,0,449.681,381.893ZM415.39,389.6a4.029,4.029,0,1,1-.553,2.008A4.046,4.046,0,0,1,415.39,389.6Zm25.108,8.774c-2.826,25.831-16.412,55.985-41.148,91.383q-2.85,4.08-5.9,8.253c-.466.637-.921,1.269-1.393,1.909q-3.8-5.154-7.292-10.161c-24.737-35.4-38.322-65.553-41.148-91.384q-.5-4.566-.553-8.956c-.022-1.828.007-3.637.1-5.42,2.258-2.376,8.907-8.5,20.92-12.777a27.475,27.475,0,0,0-3.943,8.36,13.008,13.008,0,0,0-3.041,3.263,16.022,16.022,0,0,0-2.266,5.081,21.141,21.141,0,0,0-.166,8.856,34.182,34.182,0,0,0,3.934,10.67l5.3-3.206a29.685,29.685,0,0,1-2.844-7.24,14.883,14.883,0,0,1,.222-8.873,9.454,9.454,0,0,1,.954-1.821c.563-.833,1.669-2.226,2.734-2.21,1.437.029,3.406,2.136,4.279,3.542l.116.208.19.211a11.8,11.8,0,0,1,2.06,4.981,23.207,23.207,0,0,1-.26,9.567l6.053,1.3c.1-.445.163-.868.239-1.3,1.948-10.949-2.2-17.073-3.234-18.39a18.2,18.2,0,0,0-2.144-2.683,14.161,14.161,0,0,0-2.768-2.254c1.856-4.4,7.662-12.835,24.757-11.8,7.916.477,13.62,2.7,16.95,6.6a14.2,14.2,0,0,1,3.294,8.272,10.291,10.291,0,0,0-5.852,9.243,10.25,10.25,0,1,0,19.8-3.7,10.29,10.29,0,0,0-5.1-5.521,23.7,23.7,0,0,0-3.346-11.181C432.044,375.5,438.7,381.633,440.949,384c.094,1.784.123,3.593.1,5.422Q441,393.809,440.5,398.376Z" transform="translate(-334.195 -295.041)" fill="#021429"/>
    </g>
  </g>
</svg>
