<svg xmlns="http://www.w3.org/2000/svg" width="222.694" height="95.702" viewBox="0 0 222.694 95.702">
  <g id="Group_2294" data-name="Group 2294" transform="translate(-1203.115 -190.298)">
    <g id="Group_656" data-name="Group 656" transform="translate(1203.115 213.929)">
      <path id="Path_2291" data-name="Path 2291" d="M589.908,359h7.76l8.6,13.836L614.87,359h7.76V391.72h-7.152V370.357l-9.209,13.977h-.187L596.967,370.5V391.72h-7.059Z" transform="translate(-587.312 -358.438)" fill="#122f53"/>
      <path id="Path_2292" data-name="Path 2292" d="M673.562,359h24.681v6.4H680.714v6.639H696.14v6.4H680.714v6.871h17.763v6.4H673.562Z" transform="translate(-630.395 -358.438)" fill="#122f53"/>
      <path id="Path_2293" data-name="Path 2293" d="M738.134,359H750.9c10.283,0,17.389,7.059,17.389,16.266v.094c0,9.209-7.105,16.361-17.389,16.361H738.134ZM750.9,385.223c5.889,0,9.863-3.975,9.863-9.771v-.094c0-5.8-3.974-9.863-9.863-9.863h-5.563v19.727Z" transform="translate(-663.649 -358.438)" fill="#122f53"/>
      <path id="Path_2294" data-name="Path 2294" d="M814.173,359h7.2V391.72h-7.2Z" transform="translate(-702.81 -358.438)" fill="#122f53"/>
      <path id="Path_2295" data-name="Path 2295" d="M842.893,374.857v-.094a16.631,16.631,0,0,1,17.062-16.921c6.17,0,9.863,2.057,12.9,5.048l-4.581,5.283c-2.524-2.291-5.1-3.692-8.367-3.692-5.516,0-9.489,4.58-9.489,10.189v.094c0,5.61,3.879,10.284,9.489,10.284,3.74,0,6.031-1.5,8.6-3.833l4.58,4.627a16.722,16.722,0,0,1-13.415,5.843A16.516,16.516,0,0,1,842.893,374.857Z" transform="translate(-717.601 -357.842)" fill="#122f53"/>
      <path id="Path_2296" data-name="Path 2296" d="M925.246,358.517h6.638l14.023,32.955h-7.526l-2.992-7.339H921.553l-2.992,7.339h-7.339Zm7.572,19.259-4.347-10.612-4.347,10.612Z" transform="translate(-752.791 -358.19)" fill="#122f53"/>
      <path id="Path_2297" data-name="Path 2297" d="M993.141,359h7.2v26.178h16.314v6.544H993.141Z" transform="translate(-794.979 -358.438)" fill="#122f53"/>
      <path id="Path_2298" data-name="Path 2298" d="M584.556,473.887l3.364-4.029A11.872,11.872,0,0,0,595.645,473c2.329,0,3.734-.924,3.734-2.44v-.073c0-1.442-.888-2.182-5.212-3.29-5.211-1.33-8.576-2.772-8.576-7.91v-.075c0-4.694,3.771-7.8,9.057-7.8a14.982,14.982,0,0,1,9.611,3.29L601.3,458.99a12.149,12.149,0,0,0-6.728-2.55c-2.18,0-3.326,1-3.326,2.254v.075c0,1.7,1.109,2.255,5.582,3.4,5.249,1.367,8.206,3.252,8.206,7.762v.074c0,5.138-3.918,8.021-9.5,8.021A16.466,16.466,0,0,1,584.556,473.887Z" transform="translate(-584.556 -406.031)" fill="#f9a628"/>
      <path id="Path_2299" data-name="Path 2299" d="M634.644,464.716v-.073a13.38,13.38,0,0,1,13.788-13.381c7.985,0,13.714,5.951,13.714,13.306v.075a13.381,13.381,0,0,1-13.788,13.382C640.374,478.024,634.644,472.073,634.644,464.716Zm21.551,0v-.073a7.862,7.862,0,0,0-7.837-8.132,7.739,7.739,0,0,0-7.763,8.057v.075a7.862,7.862,0,0,0,7.837,8.132A7.739,7.739,0,0,0,656.195,464.716Z" transform="translate(-610.352 -405.953)" fill="#f9a628"/>
      <path id="Path_2300" data-name="Path 2300" d="M701.808,452.176H707.5v20.7h12.9v5.175H701.808Z" transform="translate(-644.941 -406.424)" fill="#f9a628"/>
      <path id="Path_2301" data-name="Path 2301" d="M746.638,466.962V452.176h5.693v14.637c0,4.214,2.107,6.4,5.581,6.4s5.582-2.106,5.582-6.21V452.176h5.693v14.6c0,7.836-4.4,11.68-11.348,11.68S746.638,474.576,746.638,466.962Z" transform="translate(-668.029 -406.424)" fill="#f9a628"/>
      <path id="Path_2302" data-name="Path 2302" d="M809.173,457.425H801.3v-5.249h21.44v5.249h-7.874v20.626h-5.693Z" transform="translate(-696.18 -406.424)" fill="#f9a628"/>
      <path id="Path_2303" data-name="Path 2303" d="M855.047,452.176h5.692v25.875h-5.692Z" transform="translate(-723.86 -406.424)" fill="#f9a628"/>
      <path id="Path_2304" data-name="Path 2304" d="M877.765,464.716v-.073a13.38,13.38,0,0,1,13.788-13.381c7.984,0,13.714,5.951,13.714,13.306v.075a13.381,13.381,0,0,1-13.788,13.382C883.5,478.024,877.765,472.073,877.765,464.716Zm21.551,0v-.073a7.861,7.861,0,0,0-7.837-8.132,7.739,7.739,0,0,0-7.763,8.057v.075a7.861,7.861,0,0,0,7.837,8.132A7.739,7.739,0,0,0,899.316,464.716Z" transform="translate(-735.56 -405.953)" fill="#f9a628"/>
      <path id="Path_2305" data-name="Path 2305" d="M944.93,452.176h5.249L962.3,468.108V452.176h5.619v25.875H963.08L950.548,461.6v16.449H944.93Z" transform="translate(-770.15 -406.424)" fill="#f9a628"/>
      <path id="Path_2306" data-name="Path 2306" d="M1001.5,473.887l3.364-4.029a11.871,11.871,0,0,0,7.725,3.141c2.329,0,3.734-.924,3.734-2.44v-.073c0-1.442-.887-2.182-5.213-3.29-5.211-1.33-8.576-2.772-8.576-7.91v-.075c0-4.694,3.771-7.8,9.057-7.8a14.981,14.981,0,0,1,9.611,3.29l-2.957,4.287a12.144,12.144,0,0,0-6.728-2.55c-2.181,0-3.327,1-3.327,2.254v.075c0,1.7,1.109,2.255,5.583,3.4,5.248,1.367,8.206,3.252,8.206,7.762v.074c0,5.138-3.919,8.021-9.5,8.021A16.466,16.466,0,0,1,1001.5,473.887Z" transform="translate(-799.284 -406.031)" fill="#f9a628"/>
    </g>
    <g id="Group_657" data-name="Group 657" transform="translate(1207.182 190.298)">
      <path id="Path_2307" data-name="Path 2307" d="M597.133,311.912h-4.192v-2.795h11.414v2.795h-4.192v10.981h-3.031Z" transform="translate(-592.941 -309.117)" fill="#113053"/>
      <path id="Path_2308" data-name="Path 2308" d="M621.266,309.117H624.3v5.451h5.59v-5.451h3.03v13.776h-3.03v-5.53H624.3v5.53h-3.031Z" transform="translate(-607.529 -309.117)" fill="#113053"/>
      <path id="Path_2309" data-name="Path 2309" d="M652.108,309.117H662.5v2.7H655.12v2.794h6.494v2.7H655.12V320.2H662.6v2.7h-10.49Z" transform="translate(-623.412 -309.117)" fill="#113053"/>
    </g>
  </g>
</svg>
