<svg id="list_1_" data-name="list(1)" xmlns="http://www.w3.org/2000/svg" width="45.519" height="45.519" viewBox="0 0 45.519 45.519">
  <g id="Group_2805" data-name="Group 2805">
    <g id="Group_2804" data-name="Group 2804">
      <path id="Path_20536" data-name="Path 20536" d="M40.642,0H4.877A4.877,4.877,0,0,0,0,4.877V40.642a4.877,4.877,0,0,0,4.877,4.877H40.642a4.877,4.877,0,0,0,4.877-4.877V4.877A4.877,4.877,0,0,0,40.642,0Zm1.626,40.642a1.626,1.626,0,0,1-1.626,1.626H4.877a1.626,1.626,0,0,1-1.626-1.626V4.877A1.626,1.626,0,0,1,4.877,3.251H40.642a1.626,1.626,0,0,1,1.626,1.626V40.642Z" fill="#fff"/>
    </g>
  </g>
  <g id="Group_2807" data-name="Group 2807" transform="translate(8.128 9.754)">
    <g id="Group_2806" data-name="Group 2806">
      <path id="Path_20537" data-name="Path 20537" d="M91.836,102.4H86.959a1.626,1.626,0,1,0,0,3.251h4.877a1.626,1.626,0,0,0,0-3.251Z" transform="translate(-85.333 -102.4)" fill="#fff"/>
    </g>
  </g>
  <g id="Group_2809" data-name="Group 2809" transform="translate(19.508 9.754)">
    <g id="Group_2808" data-name="Group 2808">
      <path id="Path_20538" data-name="Path 20538" d="M221.057,102.4H206.426a1.626,1.626,0,0,0,0,3.251h14.631a1.626,1.626,0,1,0,0-3.251Z" transform="translate(-204.8 -102.4)" fill="#fff"/>
    </g>
  </g>
  <g id="Group_2811" data-name="Group 2811" transform="translate(8.128 21.134)">
    <g id="Group_2810" data-name="Group 2810">
      <path id="Path_20539" data-name="Path 20539" d="M91.836,221.867H86.959a1.626,1.626,0,1,0,0,3.251h4.877a1.626,1.626,0,1,0,0-3.251Z" transform="translate(-85.333 -221.867)" fill="#fff"/>
    </g>
  </g>
  <g id="Group_2813" data-name="Group 2813" transform="translate(19.508 21.134)">
    <g id="Group_2812" data-name="Group 2812">
      <path id="Path_20540" data-name="Path 20540" d="M221.057,221.867H206.426a1.626,1.626,0,1,0,0,3.251h14.631a1.626,1.626,0,1,0,0-3.251Z" transform="translate(-204.8 -221.867)" fill="#fff"/>
    </g>
  </g>
  <g id="Group_2815" data-name="Group 2815" transform="translate(8.128 32.513)">
    <g id="Group_2814" data-name="Group 2814">
      <path id="Path_20541" data-name="Path 20541" d="M91.836,341.333H86.959a1.626,1.626,0,0,0,0,3.251h4.877a1.626,1.626,0,0,0,0-3.251Z" transform="translate(-85.333 -341.333)" fill="#fff"/>
    </g>
  </g>
  <g id="Group_2817" data-name="Group 2817" transform="translate(19.508 32.513)">
    <g id="Group_2816" data-name="Group 2816">
      <path id="Path_20542" data-name="Path 20542" d="M221.057,341.333H206.426a1.626,1.626,0,0,0,0,3.251h14.631a1.626,1.626,0,1,0,0-3.251Z" transform="translate(-204.8 -341.333)" fill="#fff"/>
    </g>
  </g>
</svg>
