<svg xmlns="http://www.w3.org/2000/svg" width="42.83" height="41.135" viewBox="0 0 42.83 41.135">
  <g id="medicine" transform="translate(0.27 0.273)">
    <g id="Group_2325" data-name="Group 2325" transform="translate(16.01 3.086)">
      <g id="Group_2324" data-name="Group 2324">
        <path id="Path_4439" data-name="Path 4439" d="M199.034,48.231a.826.826,0,0,0-1.005-.6,6.684,6.684,0,0,0-4.174,3.149.826.826,0,1,0,1.431.826,5.044,5.044,0,0,1,3.152-2.374A.826.826,0,0,0,199.034,48.231Z" transform="translate(-193.744 -47.609)" fill="#fff" stroke="#fff" stroke-width="0.5"/>
      </g>
    </g>
    <g id="Group_2327" data-name="Group 2327" transform="translate(22.116 2.976)">
      <g id="Group_2326" data-name="Group 2326" transform="translate(0 0)">
        <path id="Path_4440" data-name="Path 4440" d="M268.615,46.3l-.038-.006a.832.832,0,1,0,.038.006Z" transform="translate(-267.628 -46.286)" fill="#fff" stroke="#fff" stroke-width="0.5"/>
      </g>
    </g>
    <g id="Group_2329" data-name="Group 2329" transform="translate(0)">
      <g id="Group_2328" data-name="Group 2328">
        <path id="Path_4441" data-name="Path 4441" d="M38.092,34.443c-.608-.174-1.266-.328-1.963-.461a.833.833,0,0,0-.12-.022,38.119,38.119,0,0,0-6.854-.583c-1.363,0-2.7.063-3.959.183L30.3,24.717a9.633,9.633,0,0,0-16.685-9.633L7.453,25.759l0,0v0L1.287,36.439A9.622,9.622,0,0,0,9.6,50.882a9.709,9.709,0,0,0,6.962-2.945,7.665,7.665,0,0,0,3.643,1.881,33.982,33.982,0,0,0,8.945,1.064A33.982,33.982,0,0,0,38.1,49.818c2.794-.8,4.21-1.9,4.21-3.285v-8.8s0,0,0-.005C42.309,36.347,40.89,35.243,38.092,34.443Zm-8.938.587c1.3,0,2.568.059,3.767.172l-10.5,4.633c-.623-.121-1.211-.259-1.754-.414-2.476-.708-3.019-1.463-3.019-1.694s.542-.987,3.019-1.695A32.276,32.276,0,0,1,29.154,35.03ZM15.048,15.911a7.98,7.98,0,0,1,13.822,7.98l-5.73,9.925-.067.011L9.3,25.872ZM16,37.722s0,0,0,0V46.06A8.04,8.04,0,0,1,5.639,48.167a8.006,8.006,0,0,1-2.921-10.9L8.47,27.3l12.167,7.025c-.143.037-.283.075-.421.115C17.42,35.242,16,36.345,16,37.722Zm24.658,8.811c0,.233-.541.991-3.012,1.7a32.315,32.315,0,0,1-8.491,1,32.316,32.316,0,0,1-8.491-1c-2.471-.706-3.012-1.464-3.012-1.7v-6.55a11.345,11.345,0,0,0,2.565,1.027c.648.185,1.354.347,2.1.486a.819.819,0,0,0,.111.02,38.339,38.339,0,0,0,6.725.559,33.938,33.938,0,0,0,8.938-1.066,11.344,11.344,0,0,0,2.565-1.027Zm0-8.806v0c0,.234-.55.987-3.019,1.692a32.277,32.277,0,0,1-8.484,1c-1.245,0-2.459-.054-3.612-.157l10.471-4.622c.575.115,1.12.244,1.625.388,2.472.706,3.017,1.46,3.019,1.693Z" transform="translate(0 -10.27)" fill="#fff" stroke="#fff" stroke-width="0.5"/>
      </g>
    </g>
  </g>
</svg>
