<svg xmlns="http://www.w3.org/2000/svg" width="348.005" height="259.305" viewBox="0 0 348.005 259.305">
  <g id="No_data-rafiki" data-name="No data-rafiki" transform="translate(0 -55)">
    <g id="freepik--background-complete--inject-2" transform="translate(0 55)">
      <rect id="Rectangle_1731" data-name="Rectangle 1731" width="348.005" height="0.174" transform="translate(0 227.874)" fill="#ebebeb"/>
      <rect id="Rectangle_1732" data-name="Rectangle 1732" width="23.052" height="0.174" transform="translate(290.083 239.072)" fill="#ebebeb"/>
      <rect id="Rectangle_1733" data-name="Rectangle 1733" width="6.048" height="0.174" transform="translate(224.484 240.966)" fill="#ebebeb"/>
      <rect id="Rectangle_1734" data-name="Rectangle 1734" width="13.356" height="0.174" transform="translate(276.031 232.613)" fill="#ebebeb"/>
      <rect id="Rectangle_1735" data-name="Rectangle 1735" width="30.061" height="0.174" transform="translate(36.513 233.783)" fill="#ebebeb"/>
      <rect id="Rectangle_1736" data-name="Rectangle 1736" width="4.406" height="0.174" transform="translate(72.775 233.783)" fill="#ebebeb"/>
      <rect id="Rectangle_1737" data-name="Rectangle 1737" width="65.202" height="0.174" transform="translate(91.504 236.72)" fill="#ebebeb"/>
      <path id="Path_4830" data-name="Path 4830" d="M176.57,251.832H42.177a3.974,3.974,0,0,1-3.967-3.974V58.939A3.974,3.974,0,0,1,42.177,55H176.57a3.974,3.974,0,0,1,3.974,3.974V247.857A3.974,3.974,0,0,1,176.57,251.832ZM42.177,55.139a3.8,3.8,0,0,0-3.793,3.8V247.857a3.8,3.8,0,0,0,3.793,3.8H176.57a3.807,3.807,0,0,0,3.8-3.8V58.939a3.807,3.807,0,0,0-3.8-3.8Z" transform="translate(-11.615 -55)" fill="#ebebeb"/>
      <path id="Path_4831" data-name="Path 4831" d="M392.874,251.832h-134.4a3.981,3.981,0,0,1-3.974-3.974V58.939A3.981,3.981,0,0,1,258.474,55h134.4a3.974,3.974,0,0,1,3.96,3.939V247.857A3.974,3.974,0,0,1,392.874,251.832ZM258.474,55.139a3.807,3.807,0,0,0-3.8,3.8V247.857a3.807,3.807,0,0,0,3.8,3.8h134.4a3.807,3.807,0,0,0,3.8-3.8V58.939a3.807,3.807,0,0,0-3.8-3.8Z" transform="translate(-77.366 -55)" fill="#ebebeb"/>
      <rect id="Rectangle_1738" data-name="Rectangle 1738" width="95.896" height="62.801" transform="translate(297.523 82.867) rotate(180)" fill="#e6e6e6"/>
      <rect id="Rectangle_1739" data-name="Rectangle 1739" width="97.455" height="62.801" transform="translate(296.152 82.867) rotate(180)" fill="#f0f0f0"/>
      <rect id="Rectangle_1740" data-name="Rectangle 1740" width="95.896" height="12.326" transform="translate(297.523 95.186) rotate(180)" fill="#e6e6e6"/>
      <rect id="Rectangle_1741" data-name="Rectangle 1741" width="97.455" height="12.326" transform="translate(291.287 95.186) rotate(180)" fill="#f0f0f0"/>
      <rect id="Rectangle_1742" data-name="Rectangle 1742" width="54.609" height="89.263" transform="translate(292.06 24.165) rotate(90)" fill="#fafafa"/>
      <path id="Path_4832" data-name="Path 4832" d="M377.951,144.322l-11.4-54.6H348.76l11.4,54.6Z" transform="translate(-106.02 -65.555)" fill="#fff"/>
      <path id="Path_4833" data-name="Path 4833" d="M416.772,141.287a.292.292,0,0,0,.292-.3V93.422a.292.292,0,0,0-.292-.292.285.285,0,0,0-.292.292v47.565a.292.292,0,0,0,.292.3Z" transform="translate(-126.606 -66.591)" fill="#f0f0f0"/>
      <path id="Path_4834" data-name="Path 4834" d="M351.64,144.322l-11.4-54.6H333.3l11.408,54.6Z" transform="translate(-101.32 -65.555)" fill="#fff"/>
      <rect id="Rectangle_1743" data-name="Rectangle 1743" width="54.609" height="0.522" transform="translate(203.318 24.165) rotate(90)" fill="#e6e6e6"/>
      <path id="Path_4835" data-name="Path 4835" d="M284.1,96.587H380L380.372,92h-95.9Z" transform="translate(-86.364 -66.248)" fill="#ebebeb" opacity="0.6"/>
      <path id="Path_4836" data-name="Path 4836" d="M284.1,107.39H380l.376-4.58h-95.9Z" transform="translate(-86.364 -69.534)" fill="#ebebeb" opacity="0.6"/>
      <path id="Path_4837" data-name="Path 4837" d="M284.1,118.19H380l.376-4.58h-95.9Z" transform="translate(-86.364 -72.817)" fill="#ebebeb" opacity="0.6"/>
      <path id="Path_4838" data-name="Path 4838" d="M284.1,129H380l.376-4.587h-95.9Z" transform="translate(-86.364 -76.1)" fill="#ebebeb" opacity="0.6"/>
      <path id="Path_4839" data-name="Path 4839" d="M284.1,139.8H380l.376-4.587h-95.9Z" transform="translate(-86.364 -79.383)" fill="#ebebeb" opacity="0.6"/>
      <path id="Path_4840" data-name="Path 4840" d="M284.1,150.6H380l.376-4.587h-95.9Z" transform="translate(-86.364 -82.666)" fill="#ebebeb" opacity="0.6"/>
      <rect id="Rectangle_1744" data-name="Rectangle 1744" width="20.108" height="3.967" transform="translate(263.648 182.201)" fill="#e6e6e6"/>
      <rect id="Rectangle_1745" data-name="Rectangle 1745" width="3.71" height="91.226" transform="translate(229.433 227.874) rotate(180)" fill="#e6e6e6"/>
      <rect id="Rectangle_1746" data-name="Rectangle 1746" width="50.781" height="3.967" transform="translate(263.642 186.169) rotate(180)" fill="#f5f5f5"/>
      <rect id="Rectangle_1747" data-name="Rectangle 1747" width="20.108" height="3.967" transform="translate(263.648 203.896)" fill="#e6e6e6"/>
      <rect id="Rectangle_1748" data-name="Rectangle 1748" width="50.781" height="3.967" transform="translate(263.642 207.856) rotate(180)" fill="#f5f5f5"/>
      <rect id="Rectangle_1749" data-name="Rectangle 1749" width="20.108" height="3.967" transform="translate(263.648 138.819)" fill="#e6e6e6"/>
      <rect id="Rectangle_1750" data-name="Rectangle 1750" width="50.781" height="3.967" transform="translate(263.642 142.779) rotate(180)" fill="#f5f5f5"/>
      <rect id="Rectangle_1751" data-name="Rectangle 1751" width="20.108" height="3.967" transform="translate(263.648 160.507)" fill="#e6e6e6"/>
      <rect id="Rectangle_1752" data-name="Rectangle 1752" width="50.781" height="3.967" transform="translate(263.642 164.474) rotate(180)" fill="#f5f5f5"/>
      <rect id="Rectangle_1753" data-name="Rectangle 1753" width="3.71" height="91.226" transform="translate(280.22 227.874) rotate(180)" fill="#e6e6e6"/>
      <rect id="Rectangle_1754" data-name="Rectangle 1754" width="3.71" height="91.226" transform="translate(263.642 227.874) rotate(180)" fill="#f5f5f5"/>
      <rect id="Rectangle_1755" data-name="Rectangle 1755" width="3.71" height="91.226" transform="translate(216.57 227.874) rotate(180)" fill="#f5f5f5"/>
      <rect id="Rectangle_1756" data-name="Rectangle 1756" width="37.988" height="73.7" transform="translate(83.493 227.874) rotate(180)" fill="#e6e6e6"/>
      <path id="Path_4841" data-name="Path 4841" d="M75.518,377.956H65.37V367.78H86.153Z" transform="translate(-19.872 -150.082)" fill="#fafafa"/>
      <rect id="Rectangle_1757" data-name="Rectangle 1757" width="37.988" height="73.7" transform="translate(187.06 227.874) rotate(180)" fill="#e6e6e6"/>
      <rect id="Rectangle_1758" data-name="Rectangle 1758" width="112.426" height="70.2" transform="translate(157.932 224.366) rotate(180)" fill="#fafafa"/>
      <path id="Path_4842" data-name="Path 4842" d="M207.685,377.956h10.141V367.78H197.05Z" transform="translate(-59.901 -150.082)" fill="#fafafa"/>
      <rect id="Rectangle_1759" data-name="Rectangle 1759" width="96.69" height="17.567" transform="translate(150.06 197.896) rotate(180)" fill="#f0f0f0"/>
      <rect id="Rectangle_1760" data-name="Rectangle 1760" width="96.69" height="17.567" transform="translate(150.06 219.215) rotate(180)" fill="#f0f0f0"/>
      <path id="Path_4843" data-name="Path 4843" d="M3.181,0H63.114A3.188,3.188,0,0,1,66.3,3.188V3.4H0V3.188A3.188,3.188,0,0,1,3.181,0Z" transform="translate(134.866 182.208) rotate(180)" fill="#fafafa"/>
      <rect id="Rectangle_1761" data-name="Rectangle 1761" width="96.69" height="17.567" transform="translate(150.06 176.571) rotate(180)" fill="#f0f0f0"/>
      <path id="Path_4844" data-name="Path 4844" d="M3.181,0H63.114A3.188,3.188,0,0,1,66.3,3.188V3.4H0V3.188A3.188,3.188,0,0,1,3.181,0Z" transform="translate(134.866 160.883) rotate(180)" fill="#fafafa"/>
      <path id="Path_4845" data-name="Path 4845" d="M3.181,0H63.114A3.188,3.188,0,0,1,66.3,3.188V3.4H0V3.188A3.188,3.188,0,0,1,3.181,0Z" transform="translate(134.866 203.534) rotate(180)" fill="#fafafa"/>
      <rect id="Rectangle_1762" data-name="Rectangle 1762" width="95.896" height="62.801" transform="translate(147.45 82.867) rotate(180)" fill="#e6e6e6"/>
      <rect id="Rectangle_1763" data-name="Rectangle 1763" width="97.455" height="62.801" transform="translate(146.085 82.867) rotate(180)" fill="#f0f0f0"/>
      <rect id="Rectangle_1764" data-name="Rectangle 1764" width="95.896" height="12.326" transform="translate(147.45 95.186) rotate(180)" fill="#e6e6e6"/>
      <rect id="Rectangle_1765" data-name="Rectangle 1765" width="97.455" height="12.326" transform="translate(141.206 95.186) rotate(180)" fill="#f0f0f0"/>
      <rect id="Rectangle_1766" data-name="Rectangle 1766" width="54.609" height="89.263" transform="translate(141.986 24.165) rotate(90)" fill="#fafafa"/>
      <path id="Path_4846" data-name="Path 4846" d="M162.331,144.322l-11.4-54.6H133.14l11.4,54.6Z" transform="translate(-40.473 -65.555)" fill="#fff"/>
      <path id="Path_4847" data-name="Path 4847" d="M201.142,141.287a.292.292,0,0,0,.292-.3V93.422a.285.285,0,0,0-.292-.292.292.292,0,0,0-.292.292v47.565a.292.292,0,0,0,.292.3Z" transform="translate(-61.056 -66.591)" fill="#f0f0f0"/>
      <path id="Path_4848" data-name="Path 4848" d="M136.02,144.322l-11.4-54.6H117.68l11.4,54.6Z" transform="translate(-35.774 -65.555)" fill="#fff"/>
      <rect id="Rectangle_1767" data-name="Rectangle 1767" width="54.609" height="0.522" transform="translate(53.245 24.165) rotate(90)" fill="#e6e6e6"/>
      <path id="Path_4849" data-name="Path 4849" d="M68.47,96.587h95.9L164.742,92h-95.9Z" transform="translate(-20.814 -66.248)" fill="#ebebeb" opacity="0.6"/>
      <path id="Path_4850" data-name="Path 4850" d="M68.47,100.307h95.9l.376-4.587h-95.9Z" transform="translate(-20.814 -67.378)" fill="#ebebeb" opacity="0.6"/>
      <path id="Path_4851" data-name="Path 4851" d="M68.47,104.02h95.9l.376-4.58h-95.9Z" transform="translate(-20.814 -68.509)" fill="#ebebeb" opacity="0.6"/>
      <path id="Path_4852" data-name="Path 4852" d="M68.47,107.737h95.9l.376-4.587h-95.9Z" transform="translate(-20.814 -69.637)" fill="#ebebeb" opacity="0.6"/>
      <path id="Path_4853" data-name="Path 4853" d="M68.47,111.45h95.9l.376-4.58h-95.9Z" transform="translate(-20.814 -70.768)" fill="#ebebeb" opacity="0.6"/>
      <path id="Path_4854" data-name="Path 4854" d="M68.47,115.167h95.9l.376-4.587h-95.9Z" transform="translate(-20.814 -71.896)" fill="#ebebeb" opacity="0.6"/>
      <rect id="Rectangle_1768" data-name="Rectangle 1768" width="3.313" height="36.951" transform="translate(70.144 151.918) rotate(180)" fill="#f5f5f5"/>
      <rect id="Rectangle_1769" data-name="Rectangle 1769" width="0.94" height="36.951" transform="translate(68.188 151.897) rotate(180)" fill="#fafafa"/>
      <rect id="Rectangle_1770" data-name="Rectangle 1770" width="0.369" height="36.951" transform="translate(68.947 151.897) rotate(180)" fill="#fafafa"/>
      <path id="Path_4855" data-name="Path 4855" d="M0,0H24.527a3.09,3.09,0,0,1-3.09,3.09H3.1A3.09,3.09,0,0,1,.007,0H0Z" transform="translate(80.758 154.173) rotate(180)" fill="#f0f0f0"/>
      <path id="Path_4856" data-name="Path 4856" d="M89.42,241.737h0a.961.961,0,0,0,.954-.954v-24.2a.954.954,0,0,0-.954-.954h0a.954.954,0,0,0-.96.954v24.228a.96.96,0,0,0,.96.926Z" transform="translate(-26.891 -103.83)" fill="#f0f0f0"/>
      <path id="Path_4857" data-name="Path 4857" d="M77.07,223.741h29.685L103.337,203H80.487Z" transform="translate(-23.429 -99.991)" fill="#e0e0e0"/>
    </g>
    <g id="freepik--Shadow--inject-2" transform="translate(39.053 298.548)">
      <ellipse id="freepik--path--inject-2" cx="134.949" cy="7.879" rx="134.949" ry="7.879" fill="#f5f5f5"/>
    </g>
    <g id="freepik--window-no-data--inject-2" transform="translate(71.774 122.109)">
      <rect id="Rectangle_1771" data-name="Rectangle 1771" width="0.696" height="12.869" transform="translate(0 35.505) rotate(-4.12)" fill="#f9a628"/>
      <rect id="Rectangle_1772" data-name="Rectangle 1772" width="0.696" height="4.844" transform="translate(1.396 54.967) rotate(-4.12)" fill="#f9a628"/>
      <path id="Path_4858" data-name="Path 4858" d="M266.531,265.384H117.473a6.717,6.717,0,0,1-6.57-6.132l-7.322-101.708a5.638,5.638,0,0,1,5.686-6.125H258.325a6.716,6.716,0,0,1,6.57,6.125l7.322,101.708a5.645,5.645,0,0,1-5.686,6.132Z" transform="translate(-103.255 -151.419)" fill="#f9a628"/>
      <path id="Path_4859" data-name="Path 4859" d="M267.351,265.384H118.293a6.717,6.717,0,0,1-6.57-6.132L104.4,157.545a5.638,5.638,0,0,1,5.686-6.125H259.145a6.716,6.716,0,0,1,6.57,6.125l7.322,101.708a5.638,5.638,0,0,1-5.686,6.132Z" transform="translate(-103.505 -151.419)" fill="#f9a628"/>
      <path id="Path_4860" data-name="Path 4860" d="M267.351,265.384H118.293a6.717,6.717,0,0,1-6.57-6.132L104.4,157.545a5.638,5.638,0,0,1,5.686-6.125H259.145a6.716,6.716,0,0,1,6.57,6.125l7.322,101.708a5.638,5.638,0,0,1-5.686,6.132Z" transform="translate(-103.505 -151.419)" fill="#fff" opacity="0.5"/>
      <path id="Path_4861" data-name="Path 4861" d="M260.65,155.82H111.092c-3.807.313-3.028,6.111.814,6.111H261.214c3.849,0,3.793-5.8-.063-6.111Z" transform="translate(-104.787 -152.757)" fill="#f9a628"/>
      <path id="Path_4862" data-name="Path 4862" d="M117.25,159.612A1.288,1.288,0,0,1,115.942,161a1.531,1.531,0,0,1-1.5-1.392,1.288,1.288,0,0,1,1.3-1.392A1.531,1.531,0,0,1,117.25,159.612Z" transform="translate(-106.561 -153.487)" fill="#fafafa"/>
      <path id="Path_4863" data-name="Path 4863" d="M124.12,159.612A1.288,1.288,0,0,1,122.812,161a1.531,1.531,0,0,1-1.5-1.392,1.288,1.288,0,0,1,1.3-1.392A1.531,1.531,0,0,1,124.12,159.612Z" transform="translate(-108.649 -153.487)" fill="#fafafa"/>
      <path id="Path_4864" data-name="Path 4864" d="M130.983,159.612a1.288,1.288,0,0,1-1.3,1.392,1.524,1.524,0,0,1-1.5-1.392,1.281,1.281,0,0,1,1.3-1.392A1.531,1.531,0,0,1,130.983,159.612Z" transform="translate(-110.738 -153.487)" fill="#fafafa"/>
      <path id="Path_4865" data-name="Path 4865" d="M266.9,262.107H124.327a2.429,2.429,0,0,1-2.38-2.227l-6.02-83.639a2.032,2.032,0,0,1,2.088-2.22H260.627a2.422,2.422,0,0,1,2.38,2.22l6.027,83.639a2.046,2.046,0,0,1-2.13,2.227Z" transform="translate(-107.012 -158.289)" fill="#fff"/>
      <path id="Path_4866" data-name="Path 4866" d="M233.99,238.871l-2.325-32.239-7.03-4.232H205.28l2.631,36.471Z" transform="translate(-134.177 -166.917)" fill="#fff"/>
      <path id="Path_4867" data-name="Path 4867" d="M233.844,239.056H207.765a.334.334,0,0,1-.341-.313L204.8,202.272a.327.327,0,0,1,.09-.251.334.334,0,0,1,.244-.111H224.49a.383.383,0,0,1,.174.049l7.03,4.232a.334.334,0,0,1,.167.264l2.311,32.239a.32.32,0,0,1-.09.258.327.327,0,0,1-.237.1Zm-25.752-.7h25.383l-2.283-31.7-6.765-4.072H205.5Z" transform="translate(-134.031 -166.768)" fill="#f9a628"/>
      <path id="Path_4868" data-name="Path 4868" d="M240.12,206.632l-7.03-4.232,2.582,5.61Z" transform="translate(-142.631 -166.917)" fill="#ebebeb"/>
      <path id="Path_4869" data-name="Path 4869" d="M235.525,208.195a.341.341,0,0,1-.306-.195l-2.582-5.61a.336.336,0,0,1,.48-.432l7.03,4.232a.348.348,0,0,1,.167.334.341.341,0,0,1-.237.278l-4.454,1.392Zm-1.817-5.095,2,4.35,3.48-1.065Z" transform="translate(-142.484 -166.768)" fill="#f9a628"/>
      <path id="Path_4870" data-name="Path 4870" d="M219.7,225.355a1.392,1.392,0,0,1-1.392,1.469,1.608,1.608,0,0,1-1.573-1.469,1.35,1.35,0,0,1,1.392-1.476,1.615,1.615,0,0,1,1.573,1.476Z" transform="translate(-137.659 -173.446)" fill="#f9a628"/>
      <path id="Path_4871" data-name="Path 4871" d="M233.4,225.356a1.35,1.35,0,0,1-1.392,1.469,1.615,1.615,0,0,1-1.58-1.469,1.392,1.392,0,0,1,1.392-1.476A1.608,1.608,0,0,1,233.4,225.356Z" transform="translate(-141.822 -173.447)" fill="#f9a628"/>
      <path id="Path_4872" data-name="Path 4872" d="M231.182,237.43a.341.341,0,0,1-.334-.313c-.174-2.373-3.891-4.3-8.283-4.3-2.916,0-5.533.87-6.828,2.262a2.6,2.6,0,0,0-.793,1.991.349.349,0,0,1-.7.049,3.313,3.313,0,0,1,.974-2.5c1.392-1.524,4.225-2.478,7.322-2.478,4.823,0,8.756,2.165,8.951,4.928a.334.334,0,0,1-.313.355Z" transform="translate(-136.903 -175.958)" fill="#f9a628"/>
      <path id="Path_4873" data-name="Path 4873" d="M213.026,220.733a.355.355,0,0,1-.23-.09.341.341,0,0,1,0-.48l1.483-1.594a.341.341,0,0,1,.473,0,.334.334,0,0,1,0,.473l-1.483,1.594A.334.334,0,0,1,213.026,220.733Z" transform="translate(-136.432 -171.803)" fill="#f9a628"/>
      <path id="Path_4874" data-name="Path 4874" d="M236.69,220.733a.383.383,0,0,1-.23-.09l-1.705-1.594a.334.334,0,0,1,0-.48.341.341,0,0,1,.473,0l1.705,1.594a.334.334,0,0,1,0,.473A.362.362,0,0,1,236.69,220.733Z" transform="translate(-143.107 -171.803)" fill="#f9a628"/>
    </g>
  </g>
</svg>
