<svg xmlns="http://www.w3.org/2000/svg" width="485.021" height="538.117" viewBox="0 0 485.021 538.117">
  <g id="Online_wishes_list-pana" data-name="Online wishes list-pana" transform="translate(-25.789 -32.9)">
    <g id="freepik--background-complete--inject-311" transform="translate(37.12 34.682)">
      <path id="Path_4118" data-name="Path 4118" d="M423,94.933a27.941,27.941,0,0,0-8.727-14.3,26.684,26.684,0,0,0-14.795-7.078,21.637,21.637,0,0,0-22.512,13.572,21.682,21.682,0,0,0-7.1-6.248,21.951,21.951,0,0,0-17.161-1.514A26.752,26.752,0,0,0,339.73,89.392a27.873,27.873,0,0,0-5.53,15.815,33.908,33.908,0,0,0,6.4,20.313c4.487,5.99,11.284,10.5,18.081,13.673,11.441,5.339,26.46,11.946,26.46,11.946s11.015-10.218,21.076-17.834c5.978-4.487,11.643-10.353,14.817-17.161A33.965,33.965,0,0,0,423,94.933Z" transform="translate(-0.976 -29.752)" fill="#ebebeb"/>
      <path id="Path_4119" data-name="Path 4119" d="M463.438,54.624a16.432,16.432,0,0,0-2.636-9.467,15.7,15.7,0,0,0-7.235-6.393,12.72,12.72,0,0,0-14.941,4.049A12.742,12.742,0,0,0,426.12,34.5a15.7,15.7,0,0,0-8.973,3.578,16.387,16.387,0,0,0-5.687,8.065,19.977,19.977,0,0,0,.348,12.473,28.2,28.2,0,0,0,8.042,10.667c5.608,4.868,13.045,11.037,13.045,11.037s7.852-4.016,14.817-6.73a28.221,28.221,0,0,0,11.217-7.336A20,20,0,0,0,463.438,54.624Z" transform="translate(8.323 -34.489)" fill="#ebebeb"/>
      <path id="Path_4120" data-name="Path 4120" d="M448.2,156.014a12.058,12.058,0,0,0-3.7-6.192,11.587,11.587,0,0,0-6.349-3.1,9.3,9.3,0,0,0-9.725,5.765,9.3,9.3,0,0,0-10.432-3.421,11.587,11.587,0,0,0-5.608,4.274,12.047,12.047,0,0,0-2.434,6.73,14.581,14.581,0,0,0,2.692,8.76,20.7,20.7,0,0,0,7.728,5.945c4.913,2.333,11.351,5.227,11.351,5.227s4.767-4.352,9.119-7.594a20.628,20.628,0,0,0,6.438-7.336A14.581,14.581,0,0,0,448.2,156.014Z" transform="translate(8.24 -20.842)" fill="#ebebeb"/>
      <rect id="Rectangle_718" data-name="Rectangle 718" width="182.024" height="83.945" transform="translate(0 364.822)" fill="#f5f5f5"/>
      <path id="Path_4121" data-name="Path 4121" d="M214.373,439.248H40.84V363.67H214.373Zm-172.4-1.122H213.24V364.8H41.973Z" transform="translate(-36.667 5.56)" fill="#e0e0e0"/>
      <rect id="Rectangle_719" data-name="Rectangle 719" width="44.474" height="83.945" transform="translate(182.035 364.822)" fill="#e0e0e0"/>
      <path id="Path_4122" data-name="Path 4122" d="M41.36,384.58H213.715a.236.236,0,0,0,0-.46H41.36a.236.236,0,0,0,0,.46Z" transform="translate(-36.627 8.048)" fill="#e0e0e0"/>
      <path id="Path_4123" data-name="Path 4123" d="M118.768,386.819a188.621,188.621,0,0,0,.067-22.8.236.236,0,0,0-.471,0,186.352,186.352,0,0,0,.067,22.8.168.168,0,0,0,.336,0Z" transform="translate(-27.274 5.574)" fill="#e0e0e0"/>
      <path id="Path_4124" data-name="Path 4124" d="M160.569,374.416a2.344,2.344,0,1,1-.683-1.665A2.344,2.344,0,0,1,160.569,374.416Z" transform="translate(-22.671 6.581)" fill="#e0e0e0"/>
      <path id="Path_4125" data-name="Path 4125" d="M79.909,374.416a2.344,2.344,0,1,1-.683-1.665A2.344,2.344,0,0,1,79.909,374.416Z" transform="translate(-32.485 6.581)" fill="#e0e0e0"/>
      <path id="Path_4126" data-name="Path 4126" d="M120.8,397.614a2.355,2.355,0,1,1-2.355-2.344,2.356,2.356,0,0,1,2.355,2.344Z" transform="translate(-27.512 9.405)" fill="#e0e0e0"/>
      <path id="Path_4127" data-name="Path 4127" d="M57.547,434.58,48.17,487.287h5.272L70.727,434.58Z" transform="translate(-35.776 14.188)" fill="#e0e0e0"/>
      <path id="Path_4128" data-name="Path 4128" d="M189.36,434.58l7.829,52.8h-5.272l-15.737-52.8Z" transform="translate(-20.201 14.188)" fill="#e0e0e0"/>
      <path id="Path_4129" data-name="Path 4129" d="M220.73,434.58l8.884,52.8H224.33l-16.78-52.8Z" transform="translate(-16.385 14.188)" fill="#e0e0e0"/>
      <path id="Path_4130" data-name="Path 4130" d="M120.661,418.794a2.355,2.355,0,1,1-2.355-2.344,2.355,2.355,0,0,1,2.355,2.344Z" transform="translate(-27.529 11.982)" fill="#e0e0e0"/>
      <path id="Path_4131" data-name="Path 4131" d="M41.36,407.75H213.715a.236.236,0,0,0,0-.46H41.36a.236.236,0,0,0,0,.46Z" transform="translate(-36.627 10.867)" fill="#e0e0e0"/>
      <rect id="Rectangle_720" data-name="Rectangle 720" width="11.205" height="55.04" transform="matrix(0.005, 1, -1, 0.005, 127.025, 325.112)" fill="#e0e0e0"/>
      <rect id="Rectangle_721" data-name="Rectangle 721" width="17.408" height="61.344" transform="matrix(0.005, 1, -1, 0.005, 133.599, 347.167)" fill="#f5f5f5"/>
      <path id="Path_4132" data-name="Path 4132" d="M145.827,361.308a62.707,62.707,0,0,1-.3-8.7,62.564,62.564,0,0,1,.3-8.7,65.961,65.961,0,0,1,.292,8.7,66.112,66.112,0,0,1-.292,8.7Z" transform="translate(-23.936 3.155)" fill="#e0e0e0"/>
      <path id="Path_4133" data-name="Path 4133" d="M148.127,361.308a62.7,62.7,0,0,1-.3-8.7,62.566,62.566,0,0,1,.3-8.7,65.961,65.961,0,0,1,.292,8.7,66.1,66.1,0,0,1-.292,8.7Z" transform="translate(-23.656 3.155)" fill="#e0e0e0"/>
      <path id="Path_4134" data-name="Path 4134" d="M109.9,361.308a66.11,66.11,0,0,1-.292-8.7,65.962,65.962,0,0,1,.292-8.7,62.564,62.564,0,0,1,.3,8.7,62.7,62.7,0,0,1-.3,8.7Z" transform="translate(-28.306 3.155)" fill="#e0e0e0"/>
      <path id="Path_4135" data-name="Path 4135" d="M112.2,361.308a63.857,63.857,0,0,1-.292-8.7,63.725,63.725,0,0,1,.292-8.7,62.567,62.567,0,0,1,.3,8.7A62.7,62.7,0,0,1,112.2,361.308Z" transform="translate(-28.026 3.155)" fill="#e0e0e0"/>
      <path id="Path_4136" data-name="Path 4136" d="M117.17,351.943c0-.168,6.192-.3,13.83-.3s13.819.135,13.819.3-6.192.3-13.819.3S117.17,352.111,117.17,351.943Z" transform="translate(-27.381 4.097)" fill="#e0e0e0"/>
      <rect id="Rectangle_722" data-name="Rectangle 722" width="11.205" height="75.69" transform="matrix(0.005, 1, -1, 0.005, 156.67, 335.859)" fill="#ebebeb"/>
      <path id="Path_4137" data-name="Path 4137" d="M167.6,343.466a3.623,3.623,0,1,1,3.578-3.623,3.623,3.623,0,0,1-3.578,3.623Z" transform="translate(-21.692 2.221)" fill="#e0e0e0"/>
      <rect id="Rectangle_723" data-name="Rectangle 723" width="2.243" height="50.666" transform="translate(136.069 340.942) rotate(90)" fill="#e0e0e0"/>
      <rect id="Rectangle_724" data-name="Rectangle 724" width="108.745" height="157.616" transform="translate(17.218 3.456)" fill="#e0e0e0"/>
      <rect id="Rectangle_725" data-name="Rectangle 725" width="108.745" height="157.616" transform="translate(11.777 3.456)" fill="#f5f5f5"/>
      <rect id="Rectangle_726" data-name="Rectangle 726" width="81.724" height="123.473" transform="translate(25.282 20.527)" fill="#fff"/>
      <path id="Path_4138" data-name="Path 4138" d="M141.411,176.31v-9.085c0-5.911,0-14.582-.067-25.439,0-21.771-.079-52.595-.135-88.9l.269.269H59.765l.3-.292c0,46.572,0,89.52-.067,123.473l-.236-.236,59.448.123h16.533l-16.387.067-59.628.123H59.5v-.236c0-33.953,0-76.9-.056-123.473v-.3h82.285v.28c0,36.376-.1,67.3-.135,89.083,0,10.869,0,19.472-.067,25.372v8.457A2.36,2.36,0,0,1,141.411,176.31Z" transform="translate(-34.404 -32.31)" fill="#e0e0e0"/>
      <path id="Path_4139" data-name="Path 4139" d="M146.447,37.57a21.232,21.232,0,0,1-1.94,2.815c-1.267,1.682-3.062,3.982-5.1,6.472s-3.993,4.655-5.373,6.248a19.967,19.967,0,0,1-2.4,2.445,21.648,21.648,0,0,1,2.075-2.714l5.238-6.36c1.985-2.4,3.78-4.576,5.227-6.349a19.8,19.8,0,0,1,2.277-2.557Z" transform="translate(-25.622 -34.114)" fill="#e0e0e0"/>
      <path id="Path_4140" data-name="Path 4140" d="M132.89,162.51a101.128,101.128,0,0,0,14.256,17.834" transform="translate(-25.468 -18.914)" fill="#fff"/>
      <path id="Path_4141" data-name="Path 4141" d="M147.145,180.342a16.969,16.969,0,0,1-2.49-2.243,80.6,80.6,0,0,1-10.095-12.641,15.433,15.433,0,0,1-1.66-2.928,22.255,22.255,0,0,1,2.008,2.692c1.2,1.683,2.883,3.982,4.846,6.45s3.847,4.6,5.216,6.147A22.594,22.594,0,0,1,147.145,180.342Z" transform="translate(-25.467 -18.911)" fill="#e0e0e0"/>
      <path id="Path_4142" data-name="Path 4142" d="M47.6,179.906,61.845,162.33" transform="translate(-35.845 -18.935)" fill="#fff"/>
      <path id="Path_4143" data-name="Path 4143" d="M61.845,162.31a111.753,111.753,0,0,1-6.887,8.973,106.56,106.56,0,0,1-7.358,8.626,106.081,106.081,0,0,1,6.9-8.973,107.892,107.892,0,0,1,7.347-8.626Z" transform="translate(-35.845 -18.938)" fill="#e0e0e0"/>
      <path id="Path_4144" data-name="Path 4144" d="M47.62,37.57a100.172,100.172,0,0,1,6.909,8.267,100.1,100.1,0,0,1,6.45,8.626A100.173,100.173,0,0,1,54.07,46.2a97.327,97.327,0,0,1-6.45-8.626Z" transform="translate(-35.843 -34.114)" fill="#e0e0e0"/>
      <rect id="Rectangle_727" data-name="Rectangle 727" width="27.369" height="77.698" transform="translate(54.176 45.597)" fill="#e0e0e0"/>
      <rect id="Rectangle_728" data-name="Rectangle 728" width="78.965" height="82.319" transform="translate(374.939 181.038)" fill="#e0e0e0"/>
      <rect id="Rectangle_729" data-name="Rectangle 729" width="78.965" height="82.319" transform="translate(369.588 181.038)" fill="#fafafa"/>
      <path id="Path_4145" data-name="Path 4145" d="M445.565,278.234H366.6V195.87h78.965Zm-78.954-.056h78.954V195.915H366.656Z" transform="translate(2.966 -14.855)" fill="#e0e0e0"/>
      <rect id="Rectangle_730" data-name="Rectangle 730" width="57.732" height="60.177" transform="translate(380.211 192.108)" fill="#fff"/>
      <path id="Path_4146" data-name="Path 4146" d="M377.234,259.77a9.55,9.55,0,0,1-1.425,1.66c-.92.965-2.243,2.243-3.668,3.713s-2.793,2.7-3.78,3.612a9.12,9.12,0,0,1-1.671,1.391,10.331,10.331,0,0,1,1.424-1.649c.92-.976,2.243-2.243,3.679-3.724s2.793-2.714,3.78-3.623a8.353,8.353,0,0,1,1.66-1.38Z" transform="translate(2.977 -7.081)" fill="#e0e0e0"/>
      <path id="Path_4147" data-name="Path 4147" d="M427.56,259.64a9.547,9.547,0,0,1,1.66,1.424c.965.92,2.243,2.243,3.713,3.668s2.714,2.782,3.612,3.769a8.558,8.558,0,0,1,1.391,1.671,9.826,9.826,0,0,1-1.649-1.413c-.976-.931-2.243-2.243-3.724-3.679s-2.714-2.793-3.623-3.78A9.341,9.341,0,0,1,427.56,259.64Z" transform="translate(10.383 -7.096)" fill="#e0e0e0"/>
      <path id="Path_4148" data-name="Path 4148" d="M427.42,207.025a9.544,9.544,0,0,1,1.425-1.66c.92-.965,2.243-2.243,3.668-3.713s2.793-2.714,3.769-3.612a8.97,8.97,0,0,1,1.671-1.391,9.176,9.176,0,0,1-1.413,1.649c-.92.976-2.243,2.243-3.679,3.724s-2.793,2.714-3.78,3.623a9.342,9.342,0,0,1-1.66,1.38Z" transform="translate(10.366 -14.76)" fill="#e0e0e0"/>
      <path id="Path_4149" data-name="Path 4149" d="M377.125,207.142a9.548,9.548,0,0,1-1.66-1.425c-.976-.92-2.243-2.243-3.724-3.668s-2.7-2.793-3.612-3.769a9.141,9.141,0,0,1-1.38-1.671,9.175,9.175,0,0,1,1.649,1.413c.965.92,2.243,2.243,3.724,3.679s2.714,2.793,3.612,3.78A9.815,9.815,0,0,1,377.125,207.142Z" transform="translate(2.984 -14.765)" fill="#e0e0e0"/>
      <path id="Path_4150" data-name="Path 4150" d="M433.683,265.98a1.121,1.121,0,0,1,0-.292v-4.083c0-2.86,0-7-.056-12.271,0-10.544-.067-25.551-.112-43.532l.224.213H376.164l.258-.247v60.177l-.213-.213,41.681.112,11.71.056h.045l-11.654.056-41.827.112h-.224V205.41H434v.224c0,18.036-.09,33.1-.112,43.678,0,5.238,0,9.377-.067,12.215v4.016a1.975,1.975,0,0,1-.135.437Z" transform="translate(4.102 -13.694)" fill="#e0e0e0"/>
      <rect id="Rectangle_731" data-name="Rectangle 731" width="19.27" height="19.27" transform="translate(399.447 212.568)" fill="#ebebeb"/>
    </g>
    <g id="freepik--Plant--inject-311" transform="translate(361.848 326.84)">
      <rect id="Rectangle_732" data-name="Rectangle 732" width="77.193" height="10.611" transform="translate(33.285 144.474)" fill="#263238"/>
      <path id="Path_4151" data-name="Path 4151" d="M356.18,423.64h77.451v10.869H356.18Zm77.193.258H356.449V434.24h76.924Z" transform="translate(-323.03 -279.301)" fill="#263238"/>
      <path id="Path_4152" data-name="Path 4152" d="M425.569,430.07l-11.116,54.8H373.344L362.61,433.592Z" transform="translate(-322.247 -278.519)" fill="#263238"/>
      <path id="Path_4153" data-name="Path 4153" d="M425.569,474.31l-5.934,8.143h-49.97l-7.055-8.143Z" transform="translate(-322.247 -273.136)" fill="#455a64"/>
      <path id="Path_4154" data-name="Path 4154" d="M393.307,443.793c.157,0,.348-25.395.438-56.711s0-56.711-.112-56.711-.348,25.383-.437,56.711S393.161,443.793,393.307,443.793Z" transform="translate(-318.532 -290.649)" fill="#263238"/>
      <path id="Path_4155" data-name="Path 4155" d="M378,374.84a3.065,3.065,0,0,0,.213.594l.684,1.638.5,1.189c.157.437.337.92.516,1.436s.381,1.122.594,1.66.37,1.223.572,1.884a75.753,75.753,0,0,1,2.154,9.444,115.538,115.538,0,0,1,1.2,11.822,160.931,160.931,0,0,1-.606,21.581c-.258,2.759-.5,4.991-.684,6.528-.078.718-.146,1.3-.2,1.772a2.33,2.33,0,0,0,0,.617,2.722,2.722,0,0,0,.135-.606l.3-1.761c.247-1.525.55-3.746.852-6.506a142.035,142.035,0,0,0,.774-21.659,107.218,107.218,0,0,0-1.245-11.867,70.824,70.824,0,0,0-2.243-9.489c-.213-.651-.393-1.29-.606-1.884s-.437-1.122-.639-1.649l-.561-1.424c-.191-.437-.393-.819-.55-1.178-.325-.651-.583-1.178-.785-1.6a2.41,2.41,0,0,0-.381-.538Z" transform="translate(-320.375 -285.238)" fill="#263238"/>
      <path id="Path_4156" data-name="Path 4156" d="M379.72,356.53a6.22,6.22,0,0,0,.247.841l.808,2.356.583,1.7c.2.628.4,1.312.628,2.053.449,1.469.976,3.129,1.436,5.014l.774,2.939c.236,1.032.471,2.1.729,3.208.538,2.243.92,4.61,1.424,7.123.853,5.036,1.593,10.611,2.12,16.5s.7,11.508.774,16.623,0,9.725-.269,13.595c-.067,1.929-.191,3.679-.292,5.216s-.179,2.849-.28,3.937-.135,1.862-.191,2.479a4.691,4.691,0,0,0,0,.875,5.914,5.914,0,0,0,.135-.864c.078-.617.168-1.436.292-2.479s.258-2.389.381-3.926.28-3.286.37-5.216c.258-3.87.37-8.491.381-13.617s-.247-10.768-.74-16.679-1.279-11.486-2.165-16.533c-.5-2.512-.92-4.924-1.481-7.134-.258-1.122-.5-2.187-.751-3.219l-.808-2.928c-.494-1.884-1.043-3.544-1.525-5.014-.236-.729-.46-1.4-.662-2.041s-.449-1.178-.639-1.683l-.909-2.333A3.787,3.787,0,0,0,379.72,356.53Z" transform="translate(-320.166 -287.466)" fill="#263238"/>
      <path id="Path_4157" data-name="Path 4157" d="M397.657,447.916a2.1,2.1,0,0,0,0-.3,3.846,3.846,0,0,1,.079-.875c.056-.808.135-1.929.224-3.365.191-2.972.449-7.179.774-12.338.673-10.443,1.638-24.867,3.365-40.728.9-7.941,1.94-15.468,3.017-22.3.583-3.365,1.122-6.651,1.694-9.669s1.122-5.833,1.671-8.39,1.066-4.868,1.525-6.887.875-3.769,1.234-5.193.617-2.479.808-3.264c.078-.359.146-.639.191-.864a2.752,2.752,0,0,0,.056-.292,1.232,1.232,0,0,0-.112.28c-.056.224-.146.493-.247.841-.213.785-.516,1.873-.9,3.253s-.852,3.141-1.335,5.16-1.122,4.318-1.6,6.876-1.122,5.362-1.739,8.39-1.122,6.27-1.739,9.68c-1.122,6.831-2.176,14.368-3.073,22.31-1.761,15.883-2.67,30.285-3.23,40.773-.292,5.227-.482,9.456-.606,12.338-.056,1.424-.09,2.557-.123,3.365v.875a.9.9,0,0,0,.067.325Z" transform="translate(-317.992 -290.274)" fill="#263238"/>
      <path id="Path_4158" data-name="Path 4158" d="M395.116,341.939c.336-3.589,3.971-6.3,7.594-6.349a11.946,11.946,0,0,1,9.186,4.991,28.749,28.749,0,0,1,4.419,9.826c2.434,8.468,3.769,17.375,2.726,26.135s-4.588,17.375-10.88,23.555c-1.021,1.009-2.344,2.019-3.746,1.716a4.576,4.576,0,0,1-1.974-1.223,58.484,58.484,0,0,1-18.979-44.474c.1-3.365.538-6.8,2.378-9.568s6.147-5.72,9.276-4.61" transform="translate(-319.712 -290.014)" fill="#f9a628"/>
      <path id="Path_4159" data-name="Path 4159" d="M417.91,316.988l5.081,9.22c.123.213.28.46.527.471s.46-.224.606-.449l13.46-20.65-3.107-1.761Z" transform="translate(-315.519 -293.879)" fill="#f9a628"/>
      <g id="Group_678" data-name="Group 678" transform="translate(102.391 9.941)" opacity="0.2">
        <path id="Path_4160" data-name="Path 4160" d="M417.91,316.988l5.081,9.22c.123.213.28.46.527.471s.46-.224.606-.449l13.46-20.65-3.107-1.761Z" transform="translate(-417.91 -303.82)"/>
      </g>
      <path id="Path_4161" data-name="Path 4161" d="M393.994,334.678,439.882,307.6A2.165,2.165,0,0,0,441,306.48c.179-.673-.325-1.335-.819-1.84a31.653,31.653,0,0,0-24.531-9.635,28.042,28.042,0,0,0-22.164,13.8c-4.431,7.852-4.576,18.373.5,25.888" transform="translate(-318.894 -294.957)" fill="#f9a628"/>
      <path id="Path_4162" data-name="Path 4162" d="M432.885,298.537a2.153,2.153,0,0,0-.594-.078c-.393,0-.987-.09-1.739-.079a34.234,34.234,0,0,0-6.36.5,36.951,36.951,0,0,0-9.074,2.759,36.465,36.465,0,0,0-16.993,15.378,37.9,37.9,0,0,0-3.645,8.749,34.382,34.382,0,0,0-1.122,6.281c-.079.752,0,.942-.067,1.346a2.346,2.346,0,0,0,.348,1,8.353,8.353,0,0,1-.067-2.322,38.991,38.991,0,0,1,1.3-6.192,37.475,37.475,0,0,1,29.4-26.606,40.267,40.267,0,0,1,6.293-.673C432.055,298.56,432.885,298.582,432.885,298.537Z" transform="translate(-318.515 -294.541)" fill="#263238"/>
      <path id="Path_4163" data-name="Path 4163" d="M399.12,313.71a11.3,11.3,0,0,0,2.311,1.054c1.469.572,3.511,1.312,5.8,2.03s4.374,1.3,5.9,1.683a10.61,10.61,0,0,0,2.5.471,13.168,13.168,0,0,0-2.389-.853l-5.855-1.817-5.821-1.884a11.767,11.767,0,0,0-2.445-.684Z" transform="translate(-317.805 -292.676)" fill="#263238"/>
      <path id="Path_4164" data-name="Path 4164" d="M405.626,296.4a19.817,19.817,0,0,0-.55,5.115,19.214,19.214,0,0,0,.292,5.148,33.256,33.256,0,0,0,.258-5.126A31.1,31.1,0,0,0,405.626,296.4Z" transform="translate(-317.088 -294.782)" fill="#263238"/>
      <path id="Path_4165" data-name="Path 4165" d="M437.393,306.377a22.009,22.009,0,0,0-3.365-1.122c-2.086-.639-4.991-1.458-8.233-2.243s-6.192-1.38-8.334-1.761a22.176,22.176,0,0,0-3.511-.471,24.285,24.285,0,0,0,3.432.853c2.12.482,5.059,1.122,8.289,1.907s6.136,1.537,8.244,2.086a25.083,25.083,0,0,0,3.477.752Z" transform="translate(-316.001 -294.249)" fill="#263238"/>
      <path id="Path_4166" data-name="Path 4166" d="M411.069,334.659c3.937-2.995,8.121-3.578,13.067-3.365a39.852,39.852,0,0,1,14.3,3.7c7.739,3.365,15.008,8.379,19.64,15.445s6.225,16.432,2.77,24.138a3.466,3.466,0,0,1-1.57,1.907,3.725,3.725,0,0,1-2.591-.2c-8.805-2.871-17.666-5.765-25.8-10.263S415.432,355.275,411.08,347.1a16.175,16.175,0,0,1-2.075-6.281,7.773,7.773,0,0,1,2.019-6.136" transform="translate(-316.609 -290.541)" fill="#f9a628"/>
      <path id="Path_4167" data-name="Path 4167" d="M410.77,333.47a3.761,3.761,0,0,0,.628.247l1.84.639,1.335.449c.493.168,1.009.393,1.57.606,1.122.449,2.4.9,3.758,1.559l2.165.987c.752.348,1.492.763,2.243,1.122,1.593.785,3.208,1.783,4.924,2.8a77.879,77.879,0,0,1,19.416,17.083c1.223,1.57,2.423,3.051,3.365,4.487.494.729,1.009,1.413,1.447,2.12l1.312,2.142c.83,1.268,1.436,2.49,2.03,3.544.28.527.561,1.009.8,1.469l.617,1.267c.348.718.639,1.29.864,1.75a3.257,3.257,0,0,0,.336.594,4.117,4.117,0,0,0-.236-.639l-.774-1.795c-.179-.393-.37-.83-.572-1.29s-.494-.965-.763-1.5c-.572-1.066-1.122-2.311-1.963-3.589l-1.234-2.053c-.426-.707-.942-1.4-1.436-2.142-.965-1.5-2.165-2.995-3.365-4.6a82.54,82.54,0,0,0-8.973-9.444,83.66,83.66,0,0,0-10.521-7.751c-1.739-1.01-3.365-2-4.991-2.771-.8-.393-1.548-.808-2.311-1.122l-2.187-.965c-1.38-.639-2.681-1.066-3.814-1.492-.561-.2-1.122-.4-1.582-.561l-1.357-.4-1.873-.538a3.07,3.07,0,0,0-.7-.213Z" transform="translate(-316.388 -290.271)" fill="#263238"/>
      <path id="Path_4168" data-name="Path 4168" d="M438.26,348.35a90.593,90.593,0,0,0,9.6,3.1,93.849,93.849,0,0,0,9.747,2.569,90.606,90.606,0,0,0-9.6-3.1,91.324,91.324,0,0,0-9.747-2.569Z" transform="translate(-313.043 -288.461)" fill="#263238"/>
      <path id="Path_4169" data-name="Path 4169" d="M438.677,369.454a16.655,16.655,0,0,0,.213-2.995c0-1.851.056-4.408,0-7.223s-.236-5.373-.381-7.224a15.169,15.169,0,0,0-.381-2.972,16.7,16.7,0,0,0,0,2.995c.067,2.03.135,4.487.224,7.212s.123,5.182.179,7.212A16.414,16.414,0,0,0,438.677,369.454Z" transform="translate(-313.068 -288.377)" fill="#263238"/>
      <path id="Path_4170" data-name="Path 4170" d="M422.436,361.522c.146,0,.628-5.193,1.122-11.609a104.269,104.269,0,0,0,.527-11.643c-.157-.011-.628,5.193-1.122,11.609A104.391,104.391,0,0,0,422.436,361.522Z" transform="translate(-314.975 -289.688)" fill="#263238"/>
      <path id="Path_4171" data-name="Path 4171" d="M444.843,337.833a18.665,18.665,0,0,0-3.085-.09c-1.9,0-4.487.067-7.4.168s-5.507.213-7.4.325a17.021,17.021,0,0,0-3.062.292,16.285,16.285,0,0,0,3.073.1c1.9,0,4.487-.079,7.414-.168s5.507-.213,7.4-.325a16.284,16.284,0,0,0,3.062-.3Z" transform="translate(-314.792 -289.755)" fill="#263238"/>
      <path id="Path_4172" data-name="Path 4172" d="M404.9,400.605a2.242,2.242,0,0,0,.067-.617,15.286,15.286,0,0,1,.079-1.761c.067-1.537.09-3.758,0-6.506s-.236-6-.561-9.624-.875-7.571-1.615-11.7-1.671-8.02-2.613-11.531-1.94-6.64-2.86-9.231-1.716-4.677-2.322-6.091l-.7-1.626a2.244,2.244,0,0,0-.28-.55,3.366,3.366,0,0,0,.179.595c.157.426.359.987.595,1.66.55,1.436,1.29,3.533,2.154,6.135s1.806,5.732,2.737,9.231,1.806,7.392,2.569,11.5,1.267,8.065,1.649,11.665.583,6.853.684,9.579.146,4.958.146,6.494v1.761a2.406,2.406,0,0,0,.09.617Z" transform="translate(-318.416 -289.31)" fill="#263238"/>
      <path id="Path_4173" data-name="Path 4173" d="M401.57,367.39A13.122,13.122,0,0,0,403.4,369.4c1.189,1.189,2.883,2.782,4.8,4.487s3.724,3.152,5.047,4.173a12.961,12.961,0,0,0,2.243,1.548,14.7,14.7,0,0,0-1.985-1.851l-4.935-4.285-4.89-4.33A14.144,14.144,0,0,0,401.57,367.39Z" transform="translate(-317.507 -286.145)" fill="#263238"/>
      <path id="Path_4174" data-name="Path 4174" d="M388.62,379.841a20.816,20.816,0,0,0,1.952-2.692l4.487-6.618,4.632-6.562a21.086,21.086,0,0,0,1.851-2.759,18.709,18.709,0,0,0-2.165,2.535c-1.267,1.615-2.972,3.892-4.767,6.472s-3.365,4.958-4.408,6.73a19.393,19.393,0,0,0-1.581,2.894Z" transform="translate(-319.083 -286.896)" fill="#263238"/>
      <path id="Path_4175" data-name="Path 4175" d="M395.41,345c-.09.123,4.733,3.365,10.768,7.246s10.992,6.921,11.082,6.8-4.745-3.365-10.779-7.257S395.489,344.888,395.41,345Z" transform="translate(-318.257 -288.869)" fill="#263238"/>
      <path id="Path_4176" data-name="Path 4176" d="M383.28,359.615a92.709,92.709,0,0,0,7.291-6.73,90.873,90.873,0,0,0,6.921-7.145,90.859,90.859,0,0,0-7.3,6.73A85.936,85.936,0,0,0,383.28,359.615Z" transform="translate(-319.733 -288.779)" fill="#263238"/>
      <path id="Path_4177" data-name="Path 4177" d="M386.752,361.138l-4.15-.348a20.505,20.505,0,0,1-8.356-2.557,35.29,35.29,0,0,0-3.9-1.963c-5.126-2.053-10.835-1.682-16.343-1.963a67.637,67.637,0,0,1-26.011-6.651,2.624,2.624,0,0,1-1.122-1.021c-.852-1.559.729-2.939,2.1-3.769,6.977-4.307,14.077-8.659,22-10.79s16.892-1.772,23.645,2.871c7.93,5.451,10.813,16.657,12.159,26.191" transform="translate(-326.625 -290.593)" fill="#f9a628"/>
      <path id="Path_4178" data-name="Path 4178" d="M326.75,345.692a3.263,3.263,0,0,0,.707-.325l1.963-1.032c1.694-.886,4.15-2.243,7.246-3.7a66.752,66.752,0,0,1,11.217-4.318,37.015,37.015,0,0,1,14.582-1.189,24.924,24.924,0,0,1,13.258,5.7,29.533,29.533,0,0,1,6.909,9.7,80.322,80.322,0,0,1,3.006,7.549c.3.875.55,1.57.74,2.1a6.038,6.038,0,0,0,.28.718,3.542,3.542,0,0,0-.179-.752c-.157-.538-.37-1.245-.639-2.131a69.567,69.567,0,0,0-2.86-7.65,29.387,29.387,0,0,0-6.921-9.915,25.159,25.159,0,0,0-13.527-5.855,37.128,37.128,0,0,0-14.75,1.234,65.18,65.18,0,0,0-11.217,4.487c-3.085,1.537-5.519,2.916-7.19,3.87l-1.907,1.122a5.061,5.061,0,0,0-.718.393Z" transform="translate(-326.61 -290.167)" fill="#263238"/>
      <path id="Path_4179" data-name="Path 4179" d="M335.62,350.979c.078.123,5.5-3.365,12.092-7.852s11.89-8.11,11.8-8.267-5.507,3.365-12.1,7.852S335.53,350.844,335.62,350.979Z" transform="translate(-325.531 -290.103)" fill="#263238"/>
      <path id="Path_4180" data-name="Path 4180" d="M340.77,334.61a21.311,21.311,0,0,0,7.964.662,25.8,25.8,0,0,0-3.971-.415A28.247,28.247,0,0,0,340.77,334.61Z" transform="translate(-324.905 -290.133)" fill="#263238"/>
      <path id="Path_4181" data-name="Path 4181" d="M361.91,331.85a10.713,10.713,0,0,0,1.783,2.782,12.338,12.338,0,0,0,2.243,2.557,10.514,10.514,0,0,0-1.772-2.782A11.9,11.9,0,0,0,361.91,331.85Z" transform="translate(-322.333 -290.469)" fill="#263238"/>
      <path id="Path_4182" data-name="Path 4182" d="M357.59,353.334a14.042,14.042,0,0,0,2.6-1.413c1.559-.953,3.679-2.344,5.934-3.982s4.262-3.2,5.687-4.33a15.171,15.171,0,0,0,2.243-1.929,16.107,16.107,0,0,0-2.49,1.615c-1.615,1.189-3.589,2.613-5.765,4.2s-4.33,3.073-5.833,4.105a17.544,17.544,0,0,0-2.378,1.739Z" transform="translate(-322.858 -289.273)" fill="#263238"/>
      <path id="Path_4183" data-name="Path 4183" d="M378.509,373.744c3.948-1.054,8.659,2.793,9.478,6.8s-.7,8.1-2.456,11.789A60.132,60.132,0,0,1,369.2,413.709a40.379,40.379,0,0,1-24.979,9.2c1.671-7.762-.449-15.86.482-23.746a30.913,30.913,0,0,1,27.313-27.088c2.524-.269,5.44-.662,6.45,1.671" transform="translate(-324.485 -285.6)" fill="#f9a628"/>
      <path id="Path_4184" data-name="Path 4184" d="M344.22,422.7a3.515,3.515,0,0,0,.561-.258,11,11,0,0,0,1.481-1,15.455,15.455,0,0,0,3.892-5.216c.639-1.223,1.335-2.557,2.03-4.027s1.38-3.04,2.12-4.689a43.935,43.935,0,0,1,2.613-5.025,38.954,38.954,0,0,1,3.589-4.89c2.714-3.174,5.608-5.922,8.132-8.558a55.8,55.8,0,0,0,6.192-7.425,28.046,28.046,0,0,0,3.029-5.777c.247-.729.437-1.3.527-1.694a3.055,3.055,0,0,0,.123-.606c-.056,0-.28.8-.852,2.243a29.939,29.939,0,0,1-3.152,5.608,57.582,57.582,0,0,1-6.236,7.3c-2.524,2.6-5.44,5.339-8.177,8.547a38.181,38.181,0,0,0-3.634,4.969,43,43,0,0,0-2.613,5.092l-2.075,4.711c-.662,1.469-1.346,2.8-1.952,4.038a16.029,16.029,0,0,1-3.7,5.227C344.96,422.288,344.186,422.646,344.22,422.7Z" transform="translate(-324.485 -285.396)" fill="#263238"/>
      <path id="Path_4185" data-name="Path 4185" d="M362.971,413.525a11.711,11.711,0,0,0-.359-2.658c-.314-1.626-.819-3.859-1.5-6.293s-1.424-4.61-2.008-6.158a12.012,12.012,0,0,0-1.122-2.456,14.021,14.021,0,0,0,.707,2.58c.494,1.582,1.122,3.758,1.851,6.18s1.245,4.632,1.649,6.225a14.3,14.3,0,0,0,.785,2.58Z" transform="translate(-322.811 -282.669)" fill="#263238"/>
      <path id="Path_4186" data-name="Path 4186" d="M344.88,395.1a15.4,15.4,0,0,0,2.793-.639c1.694-.437,4.049-1.054,6.663-1.638s5-1.054,6.73-1.38a16.092,16.092,0,0,0,2.793-.617,14.579,14.579,0,0,0-2.849.236c-1.75.236-4.161.628-6.8,1.223s-4.969,1.267-6.651,1.806a13.9,13.9,0,0,0-2.681,1.01Z" transform="translate(-324.404 -283.293)" fill="#263238"/>
      <path id="Path_4187" data-name="Path 4187" d="M376.078,401.8a15.3,15.3,0,0,0-.426-3.085c-.348-1.884-.9-4.487-1.638-7.313s-1.525-5.362-2.142-7.179a16,16,0,0,0-1.122-2.894,18.036,18.036,0,0,0,.763,3.006c.516,1.851,1.245,4.386,1.985,7.212s1.346,5.384,1.783,7.246a19.857,19.857,0,0,0,.8,3.006Z" transform="translate(-321.257 -284.449)" fill="#263238"/>
      <path id="Path_4188" data-name="Path 4188" d="M353,380.106c0,.146,4.947-.247,11.015-.9a108.48,108.48,0,0,0,10.959-1.436c0-.146-4.958.247-11.026.9A107.908,107.908,0,0,0,353,380.106Z" transform="translate(-323.417 -284.885)" fill="#263238"/>
      <path id="Path_4189" data-name="Path 4189" d="M356.19,433.2c0,.157,17.33.28,38.72.28s38.72-.123,38.72-.28-17.33-.269-38.72-.269S356.19,433.009,356.19,433.2Z" transform="translate(-323.028 -278.171)" fill="#455a64"/>
      <path id="Path_4190" data-name="Path 4190" d="M366.94,453.089c0,.157,11.688.28,26.09.28s26.09-.123,26.09-.28-11.677-.269-26.09-.269S366.94,452.943,366.94,453.089Z" transform="translate(-321.721 -275.751)" fill="#455a64"/>
      <path id="Path_4191" data-name="Path 4191" d="M367.35,455.94c0,.146,11.475.269,25.63.269s25.63-.123,25.63-.269-11.475-.28-25.63-.28S367.35,455.783,367.35,455.94Z" transform="translate(-321.671 -275.405)" fill="#455a64"/>
      <path id="Path_4192" data-name="Path 4192" d="M366.53,450.75c0,.157,12.092.28,26.987.28s26.987-.123,26.987-.28-12.08-.28-26.987-.28S366.53,450.593,366.53,450.75Z" transform="translate(-321.77 -276.037)" fill="#455a64"/>
    </g>
    <g id="freepik--Device--inject-311" transform="translate(196.026 32.9)">
      <path id="Path_4193" data-name="Path 4193" d="M336.922,415.23l-129.855-.078a28.288,28.288,0,0,1-28.277-28.3l.067-325.664A28.288,28.288,0,0,1,207.123,32.9l129.9.112A28.288,28.288,0,0,1,365.3,61.278l-.079,325.664A28.288,28.288,0,0,1,336.922,415.23Z" transform="translate(-178.79 -32.9)" fill="#263238"/>
      <path id="Path_4194" data-name="Path 4194" d="M335.949,43.247H310.768a6.259,6.259,0,0,0-6.113,6.393v4.554a6.27,6.27,0,0,1-6.124,6.393H249.446a6.248,6.248,0,0,1-6.113-6.393v-4.61a6.27,6.27,0,0,0-6.124-6.4H206.318a19.809,19.809,0,0,0-19.831,19.809l-.067,317.868a19.82,19.82,0,0,0,19.809,19.831l129.642.067A19.82,19.82,0,0,0,355.7,380.947l.056-317.868a19.809,19.809,0,0,0-19.809-19.831Z" transform="translate(-177.862 -31.649)" fill="#fff"/>
      <path id="Path_4232" data-name="Path 4232" d="M318.762,138.786h0a5.811,5.811,0,0,1,0-.841,4.486,4.486,0,0,1,.067-.875,3.119,3.119,0,0,1,0,.875,7.029,7.029,0,0,1-.056.841h-.011Z" transform="translate(-161.762 -20.226)" fill="#fff"/>
      <path id="Path_4233" data-name="Path 4233" d="M319.749,137.911a4.622,4.622,0,0,1-.875,0,3.084,3.084,0,0,1-.864-.079,4.484,4.484,0,0,1,.864,0,3.286,3.286,0,0,1,.875.079Z" transform="translate(-161.852 -20.136)" fill="#fff"/>
      <path id="Path_4252" data-name="Path 4252" d="M318.762,201.416h0a5.81,5.81,0,0,1,0-.841,4.486,4.486,0,0,1,.067-.875,3.119,3.119,0,0,1,0,.875,7.029,7.029,0,0,1-.056.841h-.011Z" transform="translate(-161.762 -12.606)" fill="#fff"/>
      <path id="Path_4253" data-name="Path 4253" d="M319.749,200.54a4.624,4.624,0,0,1-.875,0,4.15,4.15,0,0,1-.864-.067,3.253,3.253,0,0,1,.864,0A3.959,3.959,0,0,1,319.749,200.54Z" transform="translate(-161.852 -12.516)" fill="#fff"/>
      <path id="Path_4272" data-name="Path 4272" d="M318.762,263.276h0a5.926,5.926,0,0,1,0-.841,4.493,4.493,0,0,1,.067-.875,3.117,3.117,0,0,1,0,.875,7.023,7.023,0,0,1-.056.841h-.011Z" transform="translate(-161.762 -5.08)" fill="#fff"/>
      <path id="Path_4273" data-name="Path 4273" d="M319.749,262.393a3.366,3.366,0,0,1-.875,0,3.7,3.7,0,0,1-.864-.079,8.481,8.481,0,0,1,1.739,0Z" transform="translate(-161.852 -4.994)" fill="#fff"/>
      <path id="Path_4292" data-name="Path 4292" d="M318.762,325.525h0a5.811,5.811,0,0,1,0-.841,4.263,4.263,0,0,1,.067-.864,3.119,3.119,0,0,1,0,.875,6.99,6.99,0,0,1-.056.83h-.011Z" transform="translate(-161.762 2.495)" fill="#fff"/>
      <path id="Path_4323" data-name="Path 4323" d="M247.628,230.59a1.9,1.9,0,0,1-.123.572,7.48,7.48,0,0,1-.606,1.481,9.2,9.2,0,0,1-3.713,3.7,9.041,9.041,0,0,1-5.137.953,7.852,7.852,0,0,1-1.57-.325,1.761,1.761,0,0,1-.538-.236,10.594,10.594,0,0,0,2.12.348,9.49,9.49,0,0,0,4.98-1.021,9.332,9.332,0,0,0,3.657-3.533C247.37,231.386,247.572,230.579,247.628,230.59Z" transform="translate(-171.837 -8.848)" fill="#fff"/>
      <path id="Path_4324" data-name="Path 4324" d="M250.264,232.58a2.131,2.131,0,0,1-.269.639,9.623,9.623,0,0,1-1.032,1.593,11.519,11.519,0,0,1-11.217,4.217,10.779,10.779,0,0,1-1.828-.5,2.333,2.333,0,0,1-.628-.3,25.4,25.4,0,0,0,2.49.594,11.879,11.879,0,0,0,10.992-4.139,20.269,20.269,0,0,0,1.492-2.1Z" transform="translate(-171.916 -8.606)" fill="#fff"/>
      <path id="Path_4326" data-name="Path 4326" d="M232.451,242.56a2.68,2.68,0,0,1-.684.247c-.449.135-1.122.336-1.884.606a52.989,52.989,0,0,0-6.057,2.445,54.758,54.758,0,0,0-5.7,3.2c-.7.449-1.267.83-1.649,1.122a3.724,3.724,0,0,1-.628.381,3.367,3.367,0,0,1,.55-.482c.37-.3.92-.707,1.6-1.178a41.212,41.212,0,0,1,5.687-3.3,42.734,42.734,0,0,1,6.124-2.378c.808-.236,1.458-.415,1.918-.5A2.859,2.859,0,0,1,232.451,242.56Z" transform="translate(-174.281 -7.392)" fill="#fff"/>
      <path id="Path_4328" data-name="Path 4328" d="M211.13,255.616a15.12,15.12,0,0,1-1.638-3.544,14.829,14.829,0,0,1-.942-3.791c.09,0,.527,1.671,1.234,3.69S211.22,255.582,211.13,255.616Z" transform="translate(-175.169 -6.696)" fill="#fff"/>
      <path id="Path_4329" data-name="Path 4329" d="M224.008,265.288a16.038,16.038,0,0,1-3.455-1.615,14.818,14.818,0,0,1-3.163-2.142c0-.067,1.492.841,3.365,1.873A28.276,28.276,0,0,1,224.008,265.288Z" transform="translate(-174.094 -5.084)" fill="#fff"/>
    </g>
    <g id="freepik--Character--inject-311" transform="translate(25.789 134.101)">
      <path id="Path_4345" data-name="Path 4345" d="M103.209,448.569l-5.014,37.4L77.96,483.655l4.958-37.475Z" transform="translate(-40.821 -51.82)" fill="#f9a628"/>
      <path id="Path_4346" data-name="Path 4346" d="M87.252,483.329c-.168,0,.9-8.211,2.389-18.294s2.815-18.227,2.984-18.2-.9,8.211-2.378,18.294S87.42,483.363,87.252,483.329Z" transform="translate(-39.692 -51.741)" fill="#263238"/>
      <path id="Path_4347" data-name="Path 4347" d="M98.531,479.608,78.308,477.23l-.348,2.647,20.235,2.311Z" transform="translate(-40.821 -48.042)" fill="#263238"/>
      <path id="Path_4348" data-name="Path 4348" d="M79.37,469.419a2.982,2.982,0,0,1,.628-.74,14.081,14.081,0,0,1,2.064-1.671,13.729,13.729,0,0,1,3.623-1.739,10.835,10.835,0,0,1,12.237,4.072,9.254,9.254,0,0,1,1.122,2.389,2.58,2.58,0,0,1,.2.965,22.067,22.067,0,0,0-1.727-3.107,10.857,10.857,0,0,0-7.123-4.15,12.529,12.529,0,0,0-8.076,1.929C80.424,468.51,79.449,469.519,79.37,469.419Z" transform="translate(-40.649 -49.563)" fill="#263238"/>
      <g id="Group_683" data-name="Group 683" transform="translate(39.585 409.996)" opacity="0.3">
        <path id="Path_4349" data-name="Path 4349" d="M101.07,461.993l-.594,3.309L80.14,463.451l.437-3.331Z" transform="translate(-80.14 -460.12)"/>
      </g>
      <path id="Path_4350" data-name="Path 4350" d="M160.688,450.64l-2.311,37.665-20.347-.841,2.232-37.744Z" transform="translate(-33.512 -51.389)" fill="#f9a628"/>
      <path id="Path_4351" data-name="Path 4351" d="M147.294,486.472c-.179,0,.292-8.267,1.043-18.418s1.5-18.4,1.671-18.384-.3,8.267-1.054,18.429S147.462,486.483,147.294,486.472Z" transform="translate(-32.39 -51.396)" fill="#263238"/>
      <path id="Path_4352" data-name="Path 4352" d="M158.534,481.9l-20.347-.909-.157,2.67,20.347.841Z" transform="translate(-33.512 -47.585)" fill="#263238"/>
      <path id="Path_4353" data-name="Path 4353" d="M138.67,473.2a4.176,4.176,0,0,1,.572-.785,13.939,13.939,0,0,1,1.94-1.817,13.549,13.549,0,0,1,3.421-1.985,10.566,10.566,0,0,1,4.8-.785,10.768,10.768,0,0,1,7.706,3.96,9.287,9.287,0,0,1,1.335,2.243,2.815,2.815,0,0,1,.269.942,21.106,21.106,0,0,0-1.94-2.961,10.88,10.88,0,0,0-7.414-3.634,12.45,12.45,0,0,0-7.919,2.513C139.646,472.22,138.749,473.274,138.67,473.2Z" transform="translate(-33.434 -49.19)" fill="#263238"/>
      <g id="Group_684" data-name="Group 684" transform="translate(105.617 414.079)" opacity="0.3">
        <path id="Path_4354" data-name="Path 4354" d="M159.783,464.153l-.359,3.343-20.414-.381.2-3.354Z" transform="translate(-139.01 -463.76)"/>
      </g>
      <path id="Path_4355" data-name="Path 4355" d="M91.794,296.694c-.583,0-2.434,24.845-1.952,33.044s.942,71.854.942,71.854-4.307,2.894-4.307,6.73-7.717,74.265-7.717,74.265l23.218,3.859s21.143-76.677,21.626-87.277,15.423-83.429,15.423-83.429,4.823,68.96,4.823,79.571-.2,92.246-.2,92.246,17.2,2.434,25.462.46c0,0,7.055-61.366,7.055-81.624V373.618s8.2-38.137,12.047-57.384,0-37.677,0-37.677l-69.431-9.1Z" transform="translate(-40.723 -73.321)" fill="#263238"/>
      <path id="Path_4356" data-name="Path 4356" d="M108.146,392.336a29,29,0,0,0-8.839-.875,29.163,29.163,0,0,0-8.547,2.423A7.853,7.853,0,0,1,93,392.515a19.192,19.192,0,0,1,12.619-1.122A8.11,8.11,0,0,1,108.146,392.336Z" transform="translate(-39.263 -58.557)" fill="#455a64"/>
      <path id="Path_4357" data-name="Path 4357" d="M108.962,386.978a36.392,36.392,0,0,1-6.562.067,36.389,36.389,0,0,1-6.551-.516,37.655,37.655,0,0,1,6.562-.067A37.646,37.646,0,0,1,108.962,386.978Z" transform="translate(-38.644 -59.099)" fill="#455a64"/>
      <path id="Path_4358" data-name="Path 4358" d="M150.753,401.943a5.846,5.846,0,0,1-.684-.572,19.064,19.064,0,0,1-1.626-1.772,25.8,25.8,0,0,1-5.608-14.683,18.133,18.133,0,0,1,0-2.412,3.027,3.027,0,0,1,.123-.875c.1,0,.067,1.256.269,3.264a29.163,29.163,0,0,0,5.519,14.447A26.988,26.988,0,0,1,150.753,401.943Z" transform="translate(-32.933 -59.674)" fill="#455a64"/>
      <path id="Path_4359" data-name="Path 4359" d="M135.926,308.24a3.724,3.724,0,0,1-.594.92l-.9.9c-.393.314-.841.673-1.346,1.043a29.8,29.8,0,0,1-8.906,3.915,23.689,23.689,0,0,1-9.691.808,3.756,3.756,0,0,1-.886-.146l-.774-.224a5.094,5.094,0,0,1-1.189-.449,3.8,3.8,0,0,1-.942-.539,21.461,21.461,0,0,0,3.847.953,25.5,25.5,0,0,0,9.478-.965,33.357,33.357,0,0,0,8.839-3.7c.5-.336.965-.662,1.357-.942l.953-.808A4.039,4.039,0,0,1,135.926,308.24Z" transform="translate(-36.837 -68.602)" fill="#455a64"/>
      <path id="Path_4360" data-name="Path 4360" d="M208.31,139.393a22.332,22.332,0,0,1,2.165-9.6c2.344-4.677,9.355-12.518,9.355-12.518s9.68-7.515,10.689-7.022,1.335,1.671,0,2.838S224,120.28,224,120.28s2.176.83,2.176,2.333a3.948,3.948,0,0,1-.5,2.243s2.008.976,2.5,2.142a6.068,6.068,0,0,1,.5,2.176,1.7,1.7,0,0,1,1.335,1.66,8.973,8.973,0,0,1-.168,2.838s-3.668,4.184-5.171,4.677-3.511,1.122-3.511,1.122l-1.312,1.75v4.823Z" transform="translate(-24.962 -92.693)" fill="#ffbe9d"/>
      <path id="Path_4361" data-name="Path 4361" d="M80,169.28S45.018,231.061,44.85,240.752c-.258,17.229,48.669,31.126,48.669,31.126l6.9-19.663L75.472,234.942,93.62,195.549Z" transform="translate(-44.849 -85.509)" fill="#455a64"/>
      <path id="Path_4362" data-name="Path 4362" d="M76.205,171.045a32.113,32.113,0,0,1,15.7-6.472c9.534-1.122,26.561-1.447,26.561-1.447s46.2-10.095,49.656-8.087,8.087,14.436,8.973,20.19-3.915,60.749-3.915,60.749,20.661,63.935,19.225,66c-.707.976-25.664,9.759-50.867,11.7l-1.4-18.7-2.972,17.408C113.736,314.135,87.142,315,87.142,315s18.249-63.4,17.677-65.135S73.749,177.225,76.205,171.045Z" transform="translate(-41.051 -87.274)" fill="#455a64"/>
      <path id="Path_4363" data-name="Path 4363" d="M158.16,157.312s16.982,9.59,18.99,9.366,4-3.567,6.674-.9l14.918-2.67L213.66,136a47.749,47.749,0,0,1,14.918,9.13s-8.244,28.266-13.359,32.528-24.789,18.911-52.258,19.136L159.6,174.26Z" transform="translate(-31.063 -89.558)" fill="#455a64"/>
      <path id="Path_4364" data-name="Path 4364" d="M174,187.248c-.09-.056.729-1.245,1.683-3.365a26.692,26.692,0,0,0,1.357-3.8,29.161,29.161,0,0,0,.83-4.868,28.481,28.481,0,0,0-.1-4.935,25.968,25.968,0,0,0-.774-3.971c-.617-2.243-1.256-3.522-1.122-3.567a3.8,3.8,0,0,1,.516.875,17.2,17.2,0,0,1,1.043,2.569,24.253,24.253,0,0,1,.909,4.027,26.468,26.468,0,0,1,.146,5.047,27.03,27.03,0,0,1-.9,4.969,23.2,23.2,0,0,1-1.5,3.836,16.294,16.294,0,0,1-1.413,2.378A9,9,0,0,1,174,187.248Z" transform="translate(-29.137 -86.305)" fill="#263238"/>
      <path id="Path_4365" data-name="Path 4365" d="M200.53,166.008a15.008,15.008,0,0,1-6.45-5.788,37.476,37.476,0,0,1,3.186,2.928A37.762,37.762,0,0,1,200.53,166.008Z" transform="translate(-26.693 -86.611)" fill="#263238"/>
      <path id="Path_4366" data-name="Path 4366" d="M88.61,261.811s.7,2.524,4.722-.314c0,0,5.608-1.122,8.5-3.892s3.365-4.487,5.384-4.61,7.852-.965,7.975-.909,1.593-3.309-.236-3.881-9.938.179-9.938.179l-2.367.146-.4-3.242.46-2.939s-4.958,1.9-4.879,3.253c0,0-3.522-1.032-3.993,1.312Z" transform="translate(-39.525 -76.619)" fill="#ffbe9d"/>
      <path id="Path_4367" data-name="Path 4367" d="M92.337,216.628a6.1,6.1,0,0,1-.639-1.189c-.37-.774-.9-1.918-1.514-3.365-1.234-2.838-2.849-6.809-4.487-11.217s-2.883-8.547-3.735-11.519c-.426-1.492-.752-2.7-.953-3.544a5.608,5.608,0,0,1-.258-1.324,6.932,6.932,0,0,1,.482,1.256l1.122,3.488c.942,2.939,2.243,7,3.881,11.441s3.141,8.424,4.274,11.3l1.346,3.365A5.261,5.261,0,0,1,92.337,216.628Z" transform="translate(-40.481 -83.661)" fill="#263238"/>
      <path id="Path_4368" data-name="Path 4368" d="M145.416,241.8a8.436,8.436,0,0,1-.819,1.413c-.55.9-1.413,2.142-2.546,3.645A64.823,64.823,0,0,1,131.867,257.4a65.863,65.863,0,0,1-12.338,7.975c-1.694.819-3.085,1.436-4.072,1.806a9.829,9.829,0,0,1-1.537.527,9.115,9.115,0,0,1,1.447-.74c.953-.426,2.322-1.122,3.971-1.963A71.787,71.787,0,0,0,141.692,246.6c1.122-1.458,2.086-2.658,2.692-3.511A9.193,9.193,0,0,1,145.416,241.8Z" transform="translate(-36.446 -76.686)" fill="#263238"/>
      <path id="Path_4369" data-name="Path 4369" d="M74.754,227.78c0,.168-2.647.7-5.765,1.873s-5.474,2.535-5.608,2.389a16.387,16.387,0,0,1,5.406-2.894,16.443,16.443,0,0,1,5.967-1.368Z" transform="translate(-42.595 -78.392)" fill="#263238"/>
      <g id="Group_685" data-name="Group 685" transform="translate(37.347 94.965)" opacity="0.3">
        <path id="Path_4370" data-name="Path 4370" d="M86.305,201.66c-3.791-1.559-7.179-6.135-7.953-10.162s.83-8.177,1.4-12.237a177.124,177.124,0,0,0,6.551,22.433" transform="translate(-78.145 -179.26)"/>
      </g>
      <g id="Group_686" data-name="Group 686" transform="translate(80.996 176.97)" opacity="0.3">
        <path id="Path_4371" data-name="Path 4371" d="M117.06,270.047a23.129,23.129,0,0,0,30.218-17.677C138.046,258.6,127.2,265.415,117.06,270.047Z" transform="translate(-117.06 -252.37)"/>
      </g>
      <path id="Path_4372" data-name="Path 4372" d="M165.649,166.43a4.958,4.958,0,0,1,.3,1.2c.168.785.348,1.918.538,3.365a74.288,74.288,0,0,1-.516,22.142c-.247,1.4-.482,2.524-.684,3.3a4.555,4.555,0,0,1-.359,1.122c-.09,0,.247-1.739.639-4.487a92.819,92.819,0,0,0,.5-22.029C165.807,168.191,165.56,166.452,165.649,166.43Z" transform="translate(-30.241 -85.856)" fill="#263238"/>
      <g id="Group_687" data-name="Group 687" transform="translate(62.096 60.956)" opacity="0.3">
        <path id="Path_4373" data-name="Path 4373" d="M154.05,148.94l-53.84,83c13.146,6.6,29.724,9.882,42.152,2.008,3.444,4.24,10.824,2.7,14.178-1.626s3.724-10.185,3.769-15.7C160.544,193.964,157.269,171.441,154.05,148.94Z" transform="translate(-100.21 -148.94)"/>
      </g>
      <path id="Path_4374" data-name="Path 4374" d="M133.685,96.777c-5.788-.942-11.755,1.559-16.062,5.53s-7.2,9.254-9.512,14.649c-4.487,10.5-7.123,21.693-9.714,32.82-3.859,16.4-7.672,32.887-8.693,49.7s4,26.729,11.217,41.928l25.63-3.556v-4.857l3.466,4.857,9.949-1.537s2.984-26.023,2.984-25.944,4.745,24.789,4.745,24.789l8.3-.774c8.244-32.7-1.122-54.221,3.6-87.613,1.122-7.941,2.883-15.849,2.86-23.869s-2.109-16.41-7.639-22.209-15.075-8.188-21.872-3.926" transform="translate(-39.408 -94.595)" fill="#263238"/>
      <path id="Path_4375" data-name="Path 4375" d="M135.128,236.175a1.457,1.457,0,0,1-.09-.37,8.125,8.125,0,0,0-.213-1.122l-.763-4.274c-.628-3.713-1.5-9.1-2.243-15.782a173.249,173.249,0,0,1-1.3-23.634,134.047,134.047,0,0,1,1.043-13.954,115.945,115.945,0,0,1,3.029-14.716c2.827-9.9,6.786-18.922,8.7-27.6a55.029,55.029,0,0,0,1.525-12.462,35,35,0,0,0-1.638-10.768,29.578,29.578,0,0,0-4.094-8.009,24.362,24.362,0,0,0-4.733-4.879,22.948,22.948,0,0,0-3.657-2.243l-1.021-.46a1.672,1.672,0,0,1-.337-.179l.359.123,1.054.415a20.192,20.192,0,0,1,3.735,2.243,24.217,24.217,0,0,1,4.857,4.868,29.287,29.287,0,0,1,4.229,8.065,34.772,34.772,0,0,1,1.727,10.9,55.287,55.287,0,0,1-1.481,12.585c-1.907,8.749-5.855,17.79-8.67,27.638a116.71,116.71,0,0,0-3.017,14.638,132.656,132.656,0,0,0-1.122,13.886,180.172,180.172,0,0,0,1.122,23.555c.74,6.73,1.548,12.069,2.109,15.793.28,1.84.494,3.275.651,4.285.067.471.123.841.157,1.122A1.627,1.627,0,0,1,135.128,236.175Z" transform="translate(-34.57 -94.459)" fill="#455a64"/>
      <path id="Path_4376" data-name="Path 4376" d="M102.506,218.537a.976.976,0,0,1,0-.314c0-.236-.067-.538-.112-.909l-.37-3.533c-.079-.774-.157-1.626-.247-2.557s-.123-1.952-.191-3.04c-.112-2.187-.314-4.677-.325-7.437,0-1.38,0-2.827-.079-4.33s.056-3.062.079-4.689c0-3.242.258-6.73.471-10.342a221.386,221.386,0,0,1,3.107-23.555,221.672,221.672,0,0,1,5.844-22.983q1.682-5.2,3.365-9.781c.583-1.514,1.122-2.995,1.671-4.386l1.682-3.993c1.032-2.557,2.142-4.79,3.051-6.73.471-1,.9-1.918,1.312-2.759l1.122-2.243c.707-1.335,1.256-2.389,1.66-3.141l.437-.808q.146-.292.168-.269a1.591,1.591,0,0,1-.112.292c-.1.213-.236.494-.393.841-.381.763-.9,1.828-1.559,3.186-.337.7-.718,1.458-1.122,2.243s-.808,1.772-1.256,2.771c-.886,2-1.974,4.24-2.972,6.809-.527,1.267-1.066,2.6-1.638,3.993s-1.122,2.871-1.638,4.386c-1.178,3.017-2.243,6.315-3.365,9.77a228.5,228.5,0,0,0-5.788,22.938,229.388,229.388,0,0,0-3.141,23.443c-.224,3.623-.494,7.078-.527,10.308,0,1.615-.112,3.186-.1,4.677s0,2.95,0,4.318c0,2.759.157,5.238.236,7.425,0,1.122.09,2.109.135,3.051s.146,1.772.2,2.546c.112,1.5.2,2.692.258,3.544v.92A1.122,1.122,0,0,1,102.506,218.537Z" transform="translate(-37.998 -93.848)" fill="#455a64"/>
      <path id="Path_4377" data-name="Path 4377" d="M115.842,236.9a.725.725,0,0,0-.112-.3,5.823,5.823,0,0,1-.292-.931c-.269-.852-.628-2.041-1.122-3.556-.224-.774-.482-1.638-.763-2.58s-.494-1.985-.774-3.107c-.5-2.243-1.234-4.756-1.7-7.6-.258-1.425-.538-2.916-.83-4.487s-.46-3.186-.707-4.868-.527-3.365-.639-5.227-.314-3.657-.471-5.608a179.581,179.581,0,0,1,.179-24.856,195.933,195.933,0,0,1,3.713-24.587c.437-1.862.864-3.668,1.268-5.44s.92-3.444,1.357-5.081c.852-3.3,1.84-6.3,2.714-9.063s1.795-5.193,2.546-7.369,1.492-4,2.1-5.5l1.4-3.444.381-.886a1.717,1.717,0,0,1,.146-.3,1.334,1.334,0,0,1-.09.325l-.325.909c-.314.83-.752,2-1.3,3.477s-1.29,3.365-2.008,5.53-1.649,4.61-2.456,7.392-1.806,5.765-2.636,9.052c-.426,1.638-.931,3.365-1.324,5.081l-1.245,5.44a201.663,201.663,0,0,0-3.657,24.508,184.256,184.256,0,0,0-.236,24.778c.157,1.9.3,3.746.449,5.552s.426,3.522.617,5.216.37,3.309.673,4.857.538,3.028.785,4.487c.449,2.849,1.122,5.373,1.615,7.616.269,1.122.471,2.154.729,3.107s.494,1.806.718,2.591l.976,3.578c.09.393.168.7.236.942A1.436,1.436,0,0,1,115.842,236.9Z" transform="translate(-37.156 -92.466)" fill="#455a64"/>
      <path id="Path_4378" data-name="Path 4378" d="M149.095,223.209a2.447,2.447,0,0,1-.135-.314c-.112-.247-.269-.561-.46-.965l-.74-1.582c-.269-.639-.572-1.38-.909-2.243a79.4,79.4,0,0,1-4.3-14.582,82.622,82.622,0,0,1,.774-35.59c1.066-4.487,2.479-9.063,3.9-13.729s2.815-9.231,3.814-13.707a68.425,68.425,0,0,0,1.761-13.09,42.342,42.342,0,0,0-1.211-11.845,30.992,30.992,0,0,0-4.184-9.467A26.46,26.46,0,0,0,136.2,96.36a23,23,0,0,0-3.9-1.245l-1.054-.213a1.469,1.469,0,0,1-.348-.1,1.447,1.447,0,0,1,.359,0l1.122.157a22.256,22.256,0,0,1,3.971,1.122,26.124,26.124,0,0,1,11.475,9.714,30.711,30.711,0,0,1,4.307,9.568,42.467,42.467,0,0,1,1.29,11.979,68.3,68.3,0,0,1-1.739,13.2c-1,4.487-2.378,9.085-3.814,13.763s-2.838,9.22-3.9,13.684a83.351,83.351,0,0,0-2.12,13.056A84.809,84.809,0,0,0,147.12,217.9c.325.83.617,1.57.864,2.243l.7,1.6.4.987a1.481,1.481,0,0,1,.011.471Z" transform="translate(-34.381 -94.572)" fill="#455a64"/>
    </g>
    <g id="freepik--Floor--inject-311" transform="translate(40.99 535.955)">
      <path id="Path_4379" data-name="Path 4379" d="M510.39,481.682c0,.157-105.178.292-234.9.292s-234.921-.135-234.921-.292,105.156-.292,234.921-.292S510.39,481.513,510.39,481.682Z" transform="translate(-40.57 -481.39)" fill="#263238"/>
    </g>
    <g id="Group_688" data-name="Group 688" transform="translate(-43.644 -111.724)">
      <g id="Group_656" data-name="Group 656" transform="translate(320.737 299)">
        <path id="Path_2291" data-name="Path 2291" d="M589.908,359h2.7l2.99,4.809,2.99-4.809h2.7v11.373H598.8v-7.425l-3.2,4.858h-.065L592.361,363v7.377h-2.453Z" transform="translate(-589.006 -358.804)" fill="#122f53"/>
        <path id="Path_2292" data-name="Path 2292" d="M673.562,359h8.579v2.226h-6.093v2.307h5.362v2.226h-5.362v2.388h6.174v2.226h-8.66Z" transform="translate(-658.558 -358.804)" fill="#122f53"/>
        <path id="Path_2293" data-name="Path 2293" d="M738.134,359h4.436c3.574,0,6.044,2.453,6.044,5.654v.033a5.694,5.694,0,0,1-6.044,5.687h-4.436Zm4.436,9.115a3.241,3.241,0,0,0,3.428-3.4v-.033a3.266,3.266,0,0,0-3.428-3.428h-1.934v6.857Z" transform="translate(-712.245 -358.804)" fill="#122f53"/>
        <path id="Path_2294" data-name="Path 2294" d="M814.173,359h2.5v11.373h-2.5Z" transform="translate(-775.465 -358.804)" fill="#122f53"/>
        <path id="Path_2295" data-name="Path 2295" d="M842.893,363.756v-.033a5.781,5.781,0,0,1,5.93-5.881,5.869,5.869,0,0,1,4.484,1.755l-1.592,1.836a4.2,4.2,0,0,0-2.908-1.283,3.369,3.369,0,0,0-3.3,3.542v.033a3.378,3.378,0,0,0,3.3,3.575,4.105,4.105,0,0,0,2.99-1.332l1.592,1.608a5.812,5.812,0,0,1-4.663,2.031A5.741,5.741,0,0,1,842.893,363.756Z" transform="translate(-799.344 -357.842)" fill="#122f53"/>
        <path id="Path_2296" data-name="Path 2296" d="M916.1,358.517H918.4l4.874,11.455h-2.616l-1.04-2.551h-4.809l-1.04,2.551h-2.551Zm2.632,6.694-1.511-3.689-1.511,3.689Z" transform="translate(-856.155 -358.403)" fill="#122f53"/>
        <path id="Path_2297" data-name="Path 2297" d="M993.141,359h2.5v9.1h5.67v2.274h-8.172Z" transform="translate(-924.264 -358.804)" fill="#122f53"/>
        <path id="Path_2298" data-name="Path 2298" d="M584.556,459.224l1.169-1.4a4.126,4.126,0,0,0,2.685,1.092c.81,0,1.3-.321,1.3-.848v-.025c0-.5-.308-.758-1.812-1.144-1.811-.462-2.981-.963-2.981-2.749v-.026c0-1.632,1.311-2.711,3.148-2.711a5.208,5.208,0,0,1,3.34,1.144l-1.028,1.49a4.223,4.223,0,0,0-2.339-.886c-.758,0-1.156.347-1.156.783v.026c0,.591.385.784,1.94,1.182,1.824.475,2.852,1.13,2.852,2.7v.026c0,1.786-1.362,2.788-3.3,2.788A5.723,5.723,0,0,1,584.556,459.224Z" transform="translate(-584.556 -435.638)" fill="#f9a628"/>
        <path id="Path_2299" data-name="Path 2299" d="M634.644,455.938v-.025a4.782,4.782,0,0,1,9.559-.026v.026a4.782,4.782,0,0,1-9.559.025Zm7.491,0v-.025a2.733,2.733,0,0,0-2.724-2.827,2.69,2.69,0,0,0-2.7,2.8v.026a2.732,2.732,0,0,0,2.724,2.827A2.69,2.69,0,0,0,642.135,455.938Z" transform="translate(-626.2 -435.513)" fill="#f9a628"/>
        <path id="Path_2300" data-name="Path 2300" d="M701.808,452.176h1.979v7.195h4.484v1.8h-6.463Z" transform="translate(-682.042 -436.274)" fill="#f9a628"/>
        <path id="Path_2301" data-name="Path 2301" d="M746.638,457.315v-5.139h1.979v5.088c0,1.465.732,2.223,1.94,2.223s1.94-.732,1.94-2.159v-5.152h1.979v5.075c0,2.724-1.529,4.06-3.945,4.06S746.638,459.962,746.638,457.315Z" transform="translate(-719.315 -436.274)" fill="#f9a628"/>
        <path id="Path_2302" data-name="Path 2302" d="M804.036,454H801.3v-1.824h7.452V454h-2.737v7.169h-1.979Z" transform="translate(-764.762 -436.274)" fill="#f9a628"/>
        <path id="Path_2303" data-name="Path 2303" d="M855.047,452.176h1.979v8.994h-1.979Z" transform="translate(-809.449 -436.274)" fill="#f9a628"/>
        <path id="Path_2304" data-name="Path 2304" d="M877.765,455.938v-.025a4.782,4.782,0,0,1,9.559-.026v.026a4.782,4.782,0,0,1-9.559.025Zm7.491,0v-.025a2.732,2.732,0,0,0-2.724-2.827,2.69,2.69,0,0,0-2.7,2.8v.026a2.732,2.732,0,0,0,2.724,2.827A2.69,2.69,0,0,0,885.256,455.938Z" transform="translate(-828.337 -435.513)" fill="#f9a628"/>
        <path id="Path_2305" data-name="Path 2305" d="M944.93,452.176h1.824l4.214,5.538v-5.538h1.953v8.994h-1.683l-4.356-5.717v5.717H944.93Z" transform="translate(-884.18 -436.274)" fill="#f9a628"/>
        <path id="Path_2306" data-name="Path 2306" d="M1001.5,459.224l1.169-1.4a4.126,4.126,0,0,0,2.685,1.092c.81,0,1.3-.321,1.3-.848v-.025c0-.5-.308-.758-1.812-1.144-1.811-.462-2.981-.963-2.981-2.749v-.026c0-1.632,1.311-2.711,3.148-2.711a5.207,5.207,0,0,1,3.34,1.144l-1.028,1.49a4.221,4.221,0,0,0-2.339-.886c-.758,0-1.156.347-1.156.783v.026c0,.591.385.784,1.94,1.182,1.824.475,2.852,1.13,2.852,2.7v.026c0,1.786-1.362,2.788-3.3,2.788A5.723,5.723,0,0,1,1001.5,459.224Z" transform="translate(-931.213 -435.638)" fill="#f9a628"/>
      </g>
      <g id="Group_657" data-name="Group 657" transform="translate(322.15 290.786)">
        <path id="Path_2307" data-name="Path 2307" d="M594.4,310.089h-1.457v-.971h3.967v.971h-1.457v3.817H594.4Z" transform="translate(-592.941 -309.117)" fill="#113053"/>
        <path id="Path_2308" data-name="Path 2308" d="M621.266,309.117h1.053v1.895h1.943v-1.895h1.053v4.788h-1.053v-1.922h-1.943v1.922h-1.053Z" transform="translate(-616.491 -309.117)" fill="#113053"/>
        <path id="Path_2309" data-name="Path 2309" d="M652.108,309.117h3.612v.937h-2.565v.971h2.257v.937h-2.257v1.006h2.6v.937h-3.646Z" transform="translate(-642.134 -309.117)" fill="#113053"/>
      </g>
      <g id="Group_659" data-name="Group 659" transform="translate(267.246 287.069)">
        <path id="Path_2310" data-name="Path 2310" d="M379.775,304.994a3.979,3.979,0,1,0-3.979-3.979A3.984,3.984,0,0,0,379.775,304.994Z" transform="translate(-357.497 -295.356)" fill="none"/>
        <path id="Path_2311" data-name="Path 2311" d="M426.8,391.465a.763.763,0,0,0-1.112.245l.184-.058A5.712,5.712,0,0,1,426.8,391.465Z" transform="translate(-398.983 -373.747)" fill="none"/>
        <path id="Path_2312" data-name="Path 2312" d="M290.288,414.794c2.55,4.218,7.953,7.795,16.476,10.906-5.355-7.4-8.257-13.552-8.923-18.972a14.3,14.3,0,0,0-2.575,1.389C291.269,410.813,290.446,413.907,290.288,414.794Z" transform="translate(-286.404 -386.557)" fill="none"/>
        <path id="Path_2313" data-name="Path 2313" d="M282.353,367.25a3.3,3.3,0,1,0-1.84.564A3.3,3.3,0,0,0,282.353,367.25Z" transform="translate(-275.531 -348.717)" fill="none"/>
        <path id="Path_2314" data-name="Path 2314" d="M366.248,388.146l-.022-.039c-.166-.267-.54-.667-.813-.673-.2,0-.412.261-.519.42a1.8,1.8,0,0,0-.181.346,6.383,6.383,0,0,1,1.231.22l.247.079.16.2q.165.211.324.429a2.242,2.242,0,0,0-.391-.946Z" transform="translate(-348.282 -370.515)" fill="none"/>
        <path id="Path_2315" data-name="Path 2315" d="M427.252,414.794c-.157-.881-.977-3.978-4.978-6.676a14.311,14.311,0,0,0-2.575-1.389c-.666,5.42-3.568,11.575-8.923,18.972C419.3,422.589,424.7,419.012,427.252,414.794Z" transform="translate(-386.58 -386.557)" fill="none"/>
        <path id="Path_2316" data-name="Path 2316" d="M487.608,361.78a3.3,3.3,0,1,0,.891,4.579A3.281,3.281,0,0,0,487.608,361.78Z" transform="translate(-446.186 -348.717)" fill="none"/>
        <path id="Path_2317" data-name="Path 2317" d="M480.262,352.1a4.979,4.979,0,1,0,1.345,6.911A4.955,4.955,0,0,0,480.262,352.1Zm-.048,5.972a3.3,3.3,0,1,1-.891-4.579A3.3,3.3,0,0,1,480.214,358.071Z" transform="translate(-437.9 -340.429)" fill="#1c3664"/>
        <path id="Path_2318" data-name="Path 2318" d="M414.376,398.1A15.71,15.71,0,0,0,411,396.354c-.02.575-.068,1.158-.14,1.749a14.308,14.308,0,0,1,2.575,1.389c4,2.7,4.822,5.8,4.978,6.676-2.55,4.218-7.952,7.8-16.476,10.907q-.6.834-1.247,1.688l-.545.722h0l.806-.277c10.124-3.481,16.181-7.436,19.063-12.446l.13-.225-.02-.259C420.11,406.092,419.71,401.7,414.376,398.1Z" transform="translate(-377.743 -377.931)" fill="#1c3664"/>
        <path id="Path_2319" data-name="Path 2319" d="M272.227,361.206a4.979,4.979,0,1,0-4.132-2.2,4.954,4.954,0,0,0,4.132,2.2Zm-2.739-3.135a3.3,3.3,0,1,1,2.739,1.455A3.3,3.3,0,0,1,269.488,358.071Z" transform="translate(-267.246 -340.429)" fill="#1c3664"/>
        <path id="Path_2320" data-name="Path 2320" d="M299.477,418.763q-.645-.855-1.247-1.688c-8.523-3.111-13.926-6.689-16.476-10.906.158-.887.981-3.981,4.978-6.676a14.305,14.305,0,0,1,2.575-1.389c-.073-.591-.121-1.174-.14-1.749a15.711,15.711,0,0,0-3.374,1.745c-5.335,3.6-5.735,7.993-5.749,8.179l-.02.259.13.225c2.881,5.01,8.939,8.965,19.063,12.446l.805.277h0Z" transform="translate(-277.87 -377.931)" fill="#1c3664"/>
        <g id="Group_658" data-name="Group 658" transform="translate(11.286 0)">
          <path id="Path_2321" data-name="Path 2321" d="M371.487,298.388a5.659,5.659,0,1,0-5.659-5.659A5.666,5.666,0,0,0,371.487,298.388Zm0-9.639a3.979,3.979,0,1,1-3.979,3.979A3.984,3.984,0,0,1,371.487,288.749Z" transform="translate(-360.496 -287.069)" fill="#efa220"/>
          <path id="Path_2322" data-name="Path 2322" d="M356.134,362.428l-.019-.259-.161-.2c-.133-.168-3.341-4.1-10.767-4.1s-10.634,3.935-10.767,4.1l-.162.2-.019.259a18.283,18.283,0,0,0-.034,1.924c.02.574.068,1.158.14,1.749.666,5.42,3.568,11.574,8.923,18.972q.6.834,1.247,1.688l.545.722.052.069.074.1.074-.1.052-.069.545-.722q.645-.855,1.247-1.688c5.355-7.4,8.257-13.552,8.923-18.972.072-.591.121-1.174.14-1.749A18.267,18.267,0,0,0,356.134,362.428Zm-6.514,1.465a.765.765,0,1,1-.105.381A.769.769,0,0,1,349.62,363.892Zm4.77,1.667c-.537,4.907-3.118,10.635-7.817,17.36q-.541.775-1.121,1.568c-.089.121-.175.241-.265.363q-.722-.979-1.385-1.93c-4.7-6.725-7.28-12.453-7.817-17.36q-.095-.867-.105-1.7c0-.347,0-.691.019-1.03a10.249,10.249,0,0,1,3.974-2.427,5.219,5.219,0,0,0-.749,1.588,2.473,2.473,0,0,0-.578.62,3.044,3.044,0,0,0-.431.965,4.015,4.015,0,0,0-.032,1.682,6.494,6.494,0,0,0,.747,2.027l1.006-.609a5.64,5.64,0,0,1-.54-1.375,2.827,2.827,0,0,1,.042-1.686,1.794,1.794,0,0,1,.181-.346c.107-.158.317-.423.519-.42.273.005.647.406.813.673l.022.039.036.04a2.243,2.243,0,0,1,.391.946,4.407,4.407,0,0,1-.049,1.817l1.15.248c.018-.085.031-.165.045-.247a4.382,4.382,0,0,0-.614-3.494,3.454,3.454,0,0,0-.407-.51,2.693,2.693,0,0,0-.526-.428c.353-.835,1.456-2.438,4.7-2.242a4.424,4.424,0,0,1,3.22,1.255,2.7,2.7,0,0,1,.626,1.571,1.955,1.955,0,0,0-1.112,1.756,1.947,1.947,0,1,0,3.761-.7,1.955,1.955,0,0,0-.969-1.049,4.5,4.5,0,0,0-.636-2.124,10.249,10.249,0,0,1,3.981,2.43c.018.339.023.683.019,1.03Q354.484,364.692,354.389,365.559Z" transform="translate(-334.195 -345.929)" fill="#f9a628"/>
        </g>
      </g>
    </g>
  </g>
</svg>
