<svg id="play_1_" data-name="play(1)" xmlns="http://www.w3.org/2000/svg" width="42.778" height="42.778" viewBox="0 0 42.778 42.778">
  <g id="Group_2796" data-name="Group 2796">
    <path id="Path_20523" data-name="Path 20523" d="M36.514,6.264a21.389,21.389,0,1,0,0,30.249A21.391,21.391,0,0,0,36.514,6.264ZM30.735,22.7l-6.682,3.838-6.546,3.792a1.389,1.389,0,0,1-.858.271,1.522,1.522,0,0,1-1.535-1.535v-15.4a1.6,1.6,0,0,1,.181-.768,1.491,1.491,0,0,1,2.077-.542l6.592,3.792c.045,0,.045.045.09.045l6.682,3.838a2.21,2.21,0,0,1,.587.542A1.586,1.586,0,0,1,30.735,22.7Z" fill="#f9a628"/>
  </g>
</svg>
