<svg id="stethoscope" xmlns="http://www.w3.org/2000/svg" width="35.911" height="41.693" viewBox="0 0 35.911 41.693">
  <g id="Group_2306" data-name="Group 2306" transform="translate(0 1.623)">
    <g id="Group_2305" data-name="Group 2305">
      <path id="Path_4427" data-name="Path 4427" d="M58.325,19.932H53.456v3.043H56.8v5.731a9.13,9.13,0,0,1-18.26,0V22.975H41.79V19.932H37.023A1.522,1.522,0,0,0,35.5,21.454v7.253a12.173,12.173,0,0,0,24.346,0V21.454A1.522,1.522,0,0,0,58.325,19.932Z" transform="translate(-35.501 -19.932)" fill="#fff"/>
    </g>
  </g>
  <g id="Group_2308" data-name="Group 2308" transform="translate(10.499 21.1)">
    <g id="Group_2307" data-name="Group 2307">
      <path id="Path_4428" data-name="Path 4428" d="M182.694,261.853v7.2a7.608,7.608,0,1,1-15.216,0v-9.941h-3.043v9.941a10.651,10.651,0,1,0,21.3,0v-7.2Z" transform="translate(-164.434 -259.114)" fill="#fff"/>
    </g>
  </g>
  <g id="Group_2310" data-name="Group 2310" transform="translate(24.65 13.999)">
    <g id="Group_2309" data-name="Group 2309">
      <path id="Path_4429" data-name="Path 4429" d="M343.847,171.912a5.63,5.63,0,1,0,5.63,5.63A5.636,5.636,0,0,0,343.847,171.912Zm0,8.217a2.587,2.587,0,1,1,2.587-2.587A2.59,2.59,0,0,1,343.846,180.129Z" transform="translate(-338.216 -171.912)" fill="#fff"/>
    </g>
  </g>
  <g id="Group_2312" data-name="Group 2312" transform="translate(4.717)">
    <g id="Group_2311" data-name="Group 2311">
      <path id="Path_4430" data-name="Path 4430" d="M94.95,0a1.522,1.522,0,0,0-1.522,1.522V4.768a1.522,1.522,0,1,0,3.043,0V1.522A1.522,1.522,0,0,0,94.95,0Z" transform="translate(-93.428)" fill="#f9a628"/>
    </g>
  </g>
  <g id="Group_2314" data-name="Group 2314" transform="translate(16.484)">
    <g id="Group_2313" data-name="Group 2313">
      <path id="Path_4431" data-name="Path 4431" d="M239.456,0a1.522,1.522,0,0,0-1.522,1.522V4.768a1.522,1.522,0,0,0,3.043,0V1.522A1.522,1.522,0,0,0,239.456,0Z" transform="translate(-237.934)" fill="#f9a628"/>
    </g>
  </g>
</svg>
