<svg xmlns="http://www.w3.org/2000/svg" width="44.061" height="44.062" viewBox="0 0 44.061 44.062"><defs><style>.a{fill:#122f53;}.b{fill:#f9a628;}</style></defs><path class="a" d="M165.315,24.612a12.306,12.306,0,1,0-12.306-12.306A12.32,12.32,0,0,0,165.315,24.612Zm0-22.03a9.724,9.724,0,1,1-9.724,9.724A9.735,9.735,0,0,1,165.315,2.582Z" transform="translate(-139.842)"/><g transform="translate(21.775 5.163)"><path class="b" d="M258.165,65.879a9.2,9.2,0,0,1-2.218-1.022.5.5,0,0,1-.05-.4.718.718,0,0,1,.459-.568,1.559,1.559,0,0,1,1.375.191,1.291,1.291,0,0,0,1.746-1.9,4.2,4.2,0,0,0-1.453-.784v-.106a1.291,1.291,0,1,0-2.582,0v.187a3.234,3.234,0,0,0-1.088,5.412,10.776,10.776,0,0,0,2.949,1.424.862.862,0,0,1,.647,1.03,1.226,1.226,0,0,1-1.226,1.041,2.289,2.289,0,0,1-1.693-.437,1.291,1.291,0,0,0-1.414,2.16,4.674,4.674,0,0,0,1.825.776v.124a1.291,1.291,0,0,0,2.582,0v-.27C261.152,71.607,261.567,67.083,258.165,65.879Z" transform="translate(-253.034 -60)"/></g><path class="a" d="M37.358,275.668l-14.8,3.367a4.42,4.42,0,0,0-1.158-.76l-7.6-3.409a8.36,8.36,0,0,0-6.934.03L.762,277.676a1.291,1.291,0,1,0,1.069,2.35l6.114-2.782a5.785,5.785,0,0,1,4.8-.022l7.6,3.409A1.848,1.848,0,0,1,18.827,284l-6.57-2.957A1.291,1.291,0,0,0,11.2,283.4l6.57,2.957a4.431,4.431,0,0,0,6.146-4.981c9.639-2.193,14.073-3.2,14.134-3.219a2.676,2.676,0,0,1,2.128,4.866l-13.907,8.191a5.748,5.748,0,0,1-4.841.481l-10.669-3.734a1.291,1.291,0,0,0-.886.012L.837,291.414a1.291,1.291,0,1,0,.919,2.412l8.6-3.274,10.224,3.578a8.321,8.321,0,0,0,7.007-.695l13.907-8.191a5.257,5.257,0,0,0-4.131-9.576Z" transform="translate(-0.005 -250.539)"/></svg>