<svg xmlns="http://www.w3.org/2000/svg" width="41.467" height="41.467" viewBox="0 0 41.467 41.467"><defs><style>.a{fill:#122f53;}.b{fill:#f9a628;}</style></defs><path class="a" d="M41.44,1.385l-.006-.021a1.735,1.735,0,0,0-.143-.4c-.016-.033-.033-.065-.051-.1A1.7,1.7,0,0,0,40.968.5,1.7,1.7,0,0,0,40.6.228c-.031-.018-.062-.034-.1-.05A1.733,1.733,0,0,0,40.1.031l-.01,0A1.733,1.733,0,0,0,39.637,0c-.033,0-.066.005-.1.01a1.72,1.72,0,0,0-.448.109L1.074,15.675a1.728,1.728,0,0,0,.158,3.255l16.389,4.917,4.916,16.389a1.729,1.729,0,0,0,1.572,1.229l.085,0a1.729,1.729,0,0,0,1.6-1.074L41.346,2.376v0a1.69,1.69,0,0,0,.107-.439c0-.037.009-.073.01-.111A1.746,1.746,0,0,0,41.44,1.385ZM6.907,17.023,32.45,6.573,18.517,20.507ZM24.444,34.562,20.961,22.95,34.893,9.018Z" transform="translate(0 0)"/><g transform="translate(7.777 25.915)"><path class="b" d="M79.275,240.454a1.728,1.728,0,0,0-2.443,0l-4.32,4.32a1.728,1.728,0,1,0,2.443,2.443l4.32-4.32A1.728,1.728,0,0,0,79.275,240.454Z" transform="translate(-72.005 -239.948)"/></g><g transform="translate(0.001 25.915)"><path class="b" d="M5.547,240.454a1.728,1.728,0,0,0-2.443,0L.511,243.046a1.728,1.728,0,1,0,2.443,2.443L5.547,242.9A1.728,1.728,0,0,0,5.547,240.454Z" transform="translate(-0.005 -239.948)"/></g><g transform="translate(9.505 35.419)"><path class="b" d="M93.547,328.454a1.728,1.728,0,0,0-2.443,0l-2.592,2.592a1.728,1.728,0,1,0,2.443,2.443l2.592-2.592A1.728,1.728,0,0,0,93.547,328.454Z" transform="translate(-88.005 -327.948)"/></g></svg>