<svg xmlns="http://www.w3.org/2000/svg" width="37.277" height="35.805" viewBox="0 0 37.277 35.805"><defs><style>.a{fill:#f9a628;stroke:#f9a628;}.a,.b{stroke-width:0.5px;}.b{fill:#122f53;stroke:#122f53;}</style></defs><g transform="translate(0.268 0.27)"><g transform="translate(13.91 2.681)"><path class="a" d="M198.34,48.149a.718.718,0,0,0-.873-.518,5.807,5.807,0,0,0-3.627,2.736.718.718,0,1,0,1.243.718,4.382,4.382,0,0,1,2.738-2.063A.718.718,0,0,0,198.34,48.149Z" transform="translate(-193.744 -47.609)"/></g><g transform="translate(19.215 2.586)"><g transform="translate(0 0)"><path class="a" d="M268.486,46.3l-.033-.005a.723.723,0,1,0,.033.005Z" transform="translate(-267.628 -46.286)"/></g></g><g transform="translate(0)"><path class="b" d="M33.1,31.272c-.528-.151-1.1-.285-1.706-.4a.723.723,0,0,0-.1-.019,33.118,33.118,0,0,0-5.955-.506c-1.185,0-2.342.055-3.439.159l4.436-7.683a8.369,8.369,0,0,0-14.5-8.369L6.476,23.727l0,0v0L1.118,33.007A8.36,8.36,0,0,0,8.344,45.555,8.435,8.435,0,0,0,14.393,43a6.66,6.66,0,0,0,3.165,1.635,29.525,29.525,0,0,0,7.772.924,29.524,29.524,0,0,0,7.772-.924c2.427-.693,3.658-1.654,3.658-2.855V34.129s0,0,0,0C36.759,32.927,35.527,31.967,33.1,31.272Zm-7.766.51c1.13,0,2.231.052,3.273.149l-9.12,4.025c-.541-.105-1.052-.225-1.524-.36-2.152-.615-2.623-1.271-2.623-1.472s.471-.857,2.623-1.472A28.042,28.042,0,0,1,25.33,31.782ZM13.074,15.171A6.934,6.934,0,0,1,25.083,22.1L20.1,30.727l-.058.009L8.077,23.826Zm.826,18.95s0,0,0,0v7.241a6.986,6.986,0,0,1-9,1.83,6.956,6.956,0,0,1-2.538-9.471l5-8.655,10.571,6.1c-.124.032-.246.065-.366.1C15.135,31.966,13.9,32.925,13.9,34.121Zm21.424,7.655c0,.2-.47.861-2.617,1.474a28.076,28.076,0,0,1-7.377.869,28.077,28.077,0,0,1-7.377-.869c-2.147-.613-2.617-1.272-2.617-1.474V36.085a9.857,9.857,0,0,0,2.228.892c.563.161,1.177.3,1.827.422a.711.711,0,0,0,.1.018,33.31,33.31,0,0,0,5.843.486,29.486,29.486,0,0,0,7.766-.926,9.856,9.856,0,0,0,2.228-.892Zm0-7.651v0c0,.2-.478.857-2.623,1.47a28.043,28.043,0,0,1-7.371.87c-1.081,0-2.136-.047-3.138-.137l9.1-4.015c.5.1.973.212,1.412.337,2.148.614,2.621,1.269,2.623,1.471Z" transform="translate(0 -10.27)"/></g></g></svg>