<svg xmlns="http://www.w3.org/2000/svg" width="37.017" height="34.311" viewBox="0 0 37.017 34.311"><defs><style>.a{fill:#f9a628;}.b{fill:#122f53;}</style></defs><path class="a" d="M55.292,15.728a1.863,1.863,0,0,0-2.636,0L35.93,32.457l-7.7-7.705a1.864,1.864,0,1,0-2.636,2.635l9.023,9.023a1.864,1.864,0,0,0,2.636,0L55.292,18.364A1.864,1.864,0,0,0,55.292,15.728Z" transform="translate(-18.82 -12.762)"/><path class="b" d="M32.447,20.355a1.864,1.864,0,0,0-1.864,1.864V36.028H3.728V9.173H24.992a1.864,1.864,0,0,0,0-3.728H1.864A1.864,1.864,0,0,0,0,7.309V37.892a1.864,1.864,0,0,0,1.864,1.864H32.447a1.864,1.864,0,0,0,1.864-1.864V22.219A1.864,1.864,0,0,0,32.447,20.355Z" transform="translate(0 -5.445)"/></svg>