<svg xmlns="http://www.w3.org/2000/svg" width="35.911" height="41.693" viewBox="0 0 35.911 41.693"><defs><style>.a{fill:#122f53;}.b{fill:#f9a628;}</style></defs><g transform="translate(0 1.623)"><path class="a" d="M58.325,19.932H53.456v3.043H56.8v5.731a9.13,9.13,0,0,1-18.26,0V22.975H41.79V19.932H37.023A1.522,1.522,0,0,0,35.5,21.454v7.253a12.173,12.173,0,0,0,24.346,0V21.454A1.522,1.522,0,0,0,58.325,19.932Z" transform="translate(-35.501 -19.932)"/></g><g transform="translate(10.499 21.1)"><path class="a" d="M182.694,261.853v7.2a7.608,7.608,0,1,1-15.216,0v-9.941h-3.043v9.941a10.651,10.651,0,1,0,21.3,0v-7.2Z" transform="translate(-164.434 -259.114)"/></g><g transform="translate(24.65 13.999)"><path class="a" d="M343.847,171.912a5.63,5.63,0,1,0,5.63,5.63A5.636,5.636,0,0,0,343.847,171.912Zm0,8.217a2.587,2.587,0,1,1,2.587-2.587A2.59,2.59,0,0,1,343.846,180.129Z" transform="translate(-338.216 -171.912)"/></g><g transform="translate(4.717)"><path class="b" d="M94.95,0a1.522,1.522,0,0,0-1.522,1.522V4.768a1.522,1.522,0,1,0,3.043,0V1.522A1.522,1.522,0,0,0,94.95,0Z" transform="translate(-93.428)"/></g><g transform="translate(16.484)"><path class="b" d="M239.456,0a1.522,1.522,0,0,0-1.522,1.522V4.768a1.522,1.522,0,0,0,3.043,0V1.522A1.522,1.522,0,0,0,239.456,0Z" transform="translate(-237.934)"/></g></svg>